<svg xmlns="http://www.w3.org/2000/svg" version="1.1" viewBox="141 38 116.2 179.27">
<path d="M0 0 C37.29 0 74.58 0 113 0 C113 37.29 113 74.58 113 113 C75.71 113 38.42 113 0 113 C0 75.71 0 38.42 0 0 Z " fill="#F18808" transform="translate(144,38)"/>
<path d="M0 0 C10.56 0 21.12 0 32 0 C32 10.56 32 21.12 32 32 C21.44 32 10.88 32 0 32 C0 21.44 0 10.88 0 0 Z " fill="#F18706" transform="translate(184,79)"/>
<path d="M0 0 C1.32 0 2.64 0 4 0 C4 1.32 4 2.64 4 4 C5.32 4 6.64 4 8 4 C8 2.68 8 1.36 8 0 C8.99 0 9.98 0 11 0 C11 1.32 11 2.64 11 4 C12.32 4 13.64 4 15 4 C15 2.68 15 1.36 15 0 C16.32 0 17.64 0 19 0 C19 1.32 19 2.64 19 4 C20.32 4 21.64 4 23 4 C23 2.68 23 1.36 23 0 C23.99 0 24.98 0 26 0 C26 1.32 26 2.64 26 4 C27.32 4 28.64 4 30 4 C30 2.68 30 1.36 30 0 C31.32 0 32.64 0 34 0 C34.3403125 1.175625 34.3403125 1.175625 34.6875 2.375 C35.78125 5.21875 35.78125 5.21875 38.625 6.3125 C39.40875 6.539375 40.1925 6.76625 41 7 C41 7.99 41 8.98 41 10 C39.68 10 38.36 10 37 10 C37 11.65 37 13.3 37 15 C38.32 15 39.64 15 41 15 C41 15.99 41 16.98 41 18 C39.68 18 38.36 18 37 18 C37 19.32 37 20.64 37 22 C38.32 22 39.64 22 41 22 C41 22.99 41 23.98 41 25 C39.68 25 38.36 25 37 25 C37 26.32 37 27.64 37 29 C38.32 29 39.64 29 41 29 C41 30.32 41 31.64 41 33 C39.68 33 38.36 33 37 33 C37 34.32 37 35.64 37 37 C38.32 37 39.64 37 41 37 C41 37.99 41 38.98 41 40 C40.360625 40.12375 39.72125 40.2475 39.0625 40.375 C38.381875 40.58125 37.70125 40.7875 37 41 C36.505 41.99 36.505 41.99 36 43 C35.34 43 34.68 43 34 43 C34 44.65 34 46.3 34 48 C32.68 48 31.36 48 30 48 C30 46.35 30 44.7 30 43 C28.68 43 27.36 43 26 43 C26 44.65 26 46.3 26 48 C25.01 48 24.02 48 23 48 C23 46.35 23 44.7 23 43 C21.68 43 20.36 43 19 43 C19 44.65 19 46.3 19 48 C17.68 48 16.36 48 15 48 C15 46.35 15 44.7 15 43 C13.68 43 12.36 43 11 43 C11 44.65 11 46.3 11 48 C10.01 48 9.02 48 8 48 C8 46.35 8 44.7 8 43 C6.68 43 5.36 43 4 43 C4 44.65 4 46.3 4 48 C2.68 48 1.36 48 0 48 C-0.66 45.36 -1.32 42.72 -2 40 C-3.65 40 -5.3 40 -7 40 C-7 39.01 -7 38.02 -7 37 C-5.68 37 -4.36 37 -3 37 C-3 35.68 -3 34.36 -3 33 C-4.32 33 -5.64 33 -7 33 C-7 31.68 -7 30.36 -7 29 C-5.68 29 -4.36 29 -3 29 C-3 27.68 -3 26.36 -3 25 C-4.32 25 -5.64 25 -7 25 C-7 24.01 -7 23.02 -7 22 C-5.68 22 -4.36 22 -3 22 C-3 20.68 -3 19.36 -3 18 C-4.32 18 -5.64 18 -7 18 C-7 17.01 -7 16.02 -7 15 C-5.68 15 -4.36 15 -3 15 C-3 13.35 -3 11.7 -3 10 C-4.32 10 -5.64 10 -7 10 C-7 9.01 -7 8.02 -7 7 C-5.35 7 -3.7 7 -2 7 C-1.34 4.69 -0.68 2.38 0 0 Z M1 8 C1 18.56 1 29.12 1 40 C11.56 40 22.12 40 33 40 C33 29.44 33 18.88 33 8 C22.44 8 11.88 8 1 8 Z " fill="#FDF1E2" transform="translate(183,71)"/>
<path d="M0 0 C1.23556641 0.01740234 1.23556641 0.01740234 2.49609375 0.03515625 C3.32238281 0.04417969 4.14867187 0.05320312 5 0.0625 C5.63808594 0.07410156 6.27617187 0.08570312 6.93359375 0.09765625 C6.93359375 1.08765625 6.93359375 2.07765625 6.93359375 3.09765625 C4.62359375 3.09765625 2.31359375 3.09765625 -0.06640625 3.09765625 C-0.06640625 14.97765625 -0.06640625 26.85765625 -0.06640625 39.09765625 C11.81359375 39.09765625 23.69359375 39.09765625 35.93359375 39.09765625 C35.93359375 36.45765625 35.93359375 33.81765625 35.93359375 31.09765625 C36.92359375 31.09765625 37.91359375 31.09765625 38.93359375 31.09765625 C38.96047526 32.74340191 38.97993498 34.38927038 38.99609375 36.03515625 C39.00769531 36.95167969 39.01929688 37.86820313 39.03125 38.8125 C38.93359375 41.09765625 38.93359375 41.09765625 37.93359375 42.09765625 C34.98823805 42.19875978 32.06681815 42.23734904 29.12109375 42.23046875 C27.79501099 42.23190384 27.79501099 42.23190384 26.44213867 42.23336792 C24.56917246 42.23404976 22.69620389 42.23219518 20.82324219 42.22802734 C17.94590987 42.22267914 15.06873367 42.22797218 12.19140625 42.234375 C10.37630174 42.23371422 8.56119732 42.23243306 6.74609375 42.23046875 C5.87944092 42.23249298 5.01278809 42.23451721 4.11987305 42.23660278 C-1.95145616 42.21260634 -1.95145616 42.21260634 -3.06640625 41.09765625 C-3.16750978 38.15230055 -3.20609904 35.23088065 -3.19921875 32.28515625 C-3.20017548 31.40110107 -3.2011322 30.5170459 -3.20211792 29.60620117 C-3.20279976 27.73323496 -3.20094518 25.86026639 -3.19677734 23.98730469 C-3.19142914 21.10997237 -3.19672218 18.23279617 -3.203125 15.35546875 C-3.20246422 13.54036424 -3.20118306 11.72525982 -3.19921875 9.91015625 C-3.20124298 9.04350342 -3.20326721 8.17685059 -3.20535278 7.28393555 C-3.17715707 0.1501492 -3.17715707 0.1501492 0 0 Z " fill="#FEF8F2" transform="translate(166.06640625,89.90234375)"/>
<path d="M0 0 C0.85948746 -0.0033284 1.71897491 -0.0066568 2.60450745 -0.01008606 C4.42619286 -0.01515895 6.24788761 -0.01749427 8.06958008 -0.01733398 C10.86359915 -0.01951928 13.65722282 -0.03766769 16.45117188 -0.05664062 C18.21744656 -0.05957465 19.98372313 -0.06155939 21.75 -0.0625 C23.00942665 -0.07327827 23.00942665 -0.07327827 24.29429626 -0.08427429 C30.21258444 -0.06085306 30.21258444 -0.06085306 32.44140625 2.16796875 C32.62909278 5.09719905 32.69694266 7.93025272 32.671875 10.859375 C32.67141678 11.71981918 32.67095856 12.58026337 32.67048645 13.46678162 C32.6674633 15.28670632 32.65957513 17.10662842 32.6472168 18.92651367 C32.62895773 21.72258599 32.6267071 24.51832741 32.62695312 27.31445312 C32.62203815 29.07942997 32.61620992 30.84440455 32.609375 32.609375 C32.60826218 33.451017 32.60714935 34.292659 32.60600281 35.1598053 C32.5574533 41.0519217 32.5574533 41.0519217 31.44140625 42.16796875 C29.75531659 42.24002386 28.06639966 42.25182943 26.37890625 42.23046875 C25.45980469 42.22144531 24.54070312 42.21242187 23.59375 42.203125 C22.88347656 42.19152344 22.17320312 42.17992187 21.44140625 42.16796875 C21.44140625 41.17796875 21.44140625 40.18796875 21.44140625 39.16796875 C24.08140625 39.16796875 26.72140625 39.16796875 29.44140625 39.16796875 C29.44140625 27.28796875 29.44140625 15.40796875 29.44140625 3.16796875 C17.23140625 3.16796875 5.02140625 3.16796875 -7.55859375 3.16796875 C-7.55859375 5.47796875 -7.55859375 7.78796875 -7.55859375 10.16796875 C-8.21859375 10.16796875 -8.87859375 10.16796875 -9.55859375 10.16796875 C-9.58548591 8.68889983 -9.60493996 7.20969392 -9.62109375 5.73046875 C-9.63269531 4.90675781 -9.64429688 4.08304688 -9.65625 3.234375 C-9.4210857 -1.74170153 -3.8040578 0.00502975 0 0 Z " fill="#FEF2E3" transform="translate(205.55859375,56.83203125)"/>
<path d="M0 0 C5.28 0 10.56 0 16 0 C16 1.65 16 3.3 16 5 C12.7 5 9.4 5 6 5 C6 6.32 6 7.64 6 9 C8.64 9 11.28 9 14 9 C14 10.65 14 12.3 14 14 C11.36 14 8.72 14 6 14 C6 15.65 6 17.3 6 19 C9.3 19 12.6 19 16 19 C16 20.32 16 21.64 16 23 C10.72 23 5.44 23 0 23 C0 15.41 0 7.82 0 0 Z " fill="#333333" transform="translate(174,193)"/>
<path d="M0 0 C1.93875 -0.020625 3.8775 -0.04125 5.875 -0.0625 C6.96554688 -0.07410156 8.05609375 -0.08570313 9.1796875 -0.09765625 C12 0 12 0 14 1 C14.66 0.67 15.32 0.34 16 0 C19.5 -0.25 19.5 -0.25 23 0 C25.49118953 3.7367843 25.2065226 5.74451819 25.125 10.1875 C25.10695312 11.45980469 25.08890625 12.73210937 25.0703125 14.04296875 C25.04710937 15.01878906 25.02390625 15.99460938 25 17 C23.68 17 22.36 17 21 17 C20.67 12.38 20.34 7.76 20 3 C18.35 3.66 16.7 4.32 15 5 C14.67 8.96 14.34 12.92 14 17 C12.68 17 11.36 17 10 17 C9.67 12.71 9.34 8.42 9 4 C7.35 4 5.7 4 4 4 C4 8.29 4 12.58 4 17 C2.68 17 1.36 17 0 17 C0 11.39 0 5.78 0 0 Z " fill="#333333" transform="translate(164,165)"/>
<path d="M0 0 C2.5625 1.5625 2.5625 1.5625 4 4 C4.18068011 8.78802284 2.9577311 11.39357087 -0.0625 14.9375 C-1.02805777 15.97121478 -2.00283709 16.99673823 -3 18 C-0.36 18.33 2.28 18.66 5 19 C5 20.32 5 21.64 5 23 C-0.61 23 -6.22 23 -12 23 C-10.97697954 17.8848977 -10.42872951 16.95807048 -7 13.4375 C-4.02161095 10.36869557 -3.06983352 9.27933409 -2 5 C-4.97 5.66 -7.94 6.32 -11 7 C-11.1875 4.625 -11.1875 4.625 -11 2 C-7.3100508 -0.45996614 -4.28340287 -0.67949564 0 0 Z " fill="#333333" transform="translate(223,193)"/>
<path d="M0 0 C0.66 0.33 1.32 0.66 2 1 C2 2.32 2 3.64 2 5 C1.37351563 5.02578125 0.74703125 5.0515625 0.1015625 5.078125 C-0.71570313 5.13484375 -1.53296875 5.1915625 -2.375 5.25 C-3.18710938 5.29640625 -3.99921875 5.3428125 -4.8359375 5.390625 C-7.14018624 5.79669595 -7.14018624 5.79669595 -8.3046875 7.81640625 C-9.3479397 11.09268704 -8.74809569 13.6959107 -8 17 C-5.71294169 18.14352916 -4.40735238 18.10334439 -1.875 18.0625 C-0.59625 18.041875 0.6825 18.02125 2 18 C2 19.65 2 21.3 2 23 C-1.19123774 24.59561887 -4.52745091 24.3799142 -8 24 C-11.58552881 22.36312815 -12.79315055 21.31027417 -15 18 C-15.66562326 12.56665664 -15.92770031 7.63147296 -13.1875 2.8125 C-9.01526504 -0.64449468 -5.15577285 -0.16367533 0 0 Z " fill="#333333" transform="translate(207,193)"/>
<path d="M0 0 C2.36010742 0.19311523 2.36010742 0.19311523 5 1 C6.30200195 3.13305664 6.30200195 3.13305664 7.23828125 5.91015625 C7.58310547 6.89951172 7.92792969 7.88886719 8.28320312 8.90820312 C8.62287109 9.94912109 8.96253906 10.99003906 9.3125 12.0625 C9.67150391 13.10728516 10.03050781 14.15207031 10.40039062 15.22851562 C11.28559553 17.81331393 12.15103751 20.40311772 13 23 C11.35 23 9.7 23 8 23 C7.34 21.35 6.68 19.7 6 18 C3.36 17.67 0.72 17.34 -2 17 C-2.66 18.98 -3.32 20.96 -4 23 C-5.32 23 -6.64 23 -8 23 C-5.81659819 15.13620323 -3.00714974 7.58324716 0 0 Z M2 6 C0.515 9.96 0.515 9.96 -1 14 C0.98 14 2.96 14 5 14 C4.34 11.36 3.68 8.72 3 6 C2.67 6 2.34 6 2 6 Z " fill="#333333" transform="translate(149,159)"/>
<path d="M0 0 C2.4375 1.375 2.4375 1.375 4 4 C4.60767596 7.45114081 4.65831187 10.55388046 4 14 C1.43003021 17.17466856 -0.04668696 17.86381242 -4.0625 18.4375 C-7.31059514 17.95374115 -8.69411274 17.30588726 -11 15 C-12.21260877 11.36217368 -12.39544552 8.82264001 -12 5 C-8.59008657 0.14345663 -5.84624621 -0.95665847 0 0 Z M-6.75 4.0625 C-8.32867823 6.11477315 -8.32867823 6.11477315 -7.9375 9.5625 C-7.37693916 13.06468563 -7.37693916 13.06468563 -4.9375 14.4375 C-4.298125 14.623125 -3.65875 14.80875 -3 15 C-2.01 14.34 -1.02 13.68 0 13 C0.43827201 11.09542071 0.43827201 11.09542071 0.3125 9 C0.30863281 8.29875 0.30476562 7.5975 0.30078125 6.875 C0.14912946 4.7583423 0.14912946 4.7583423 -2 3 C-4.91382165 2.74051093 -4.91382165 2.74051093 -6.75 4.0625 Z " fill="#333333" transform="translate(235,165)"/>
<path d="M0 0 C1.7421875 1.06640625 1.7421875 1.06640625 3 3 C3.29296875 6.35546875 3.29296875 6.35546875 3.1875 10.1875 C3.16042969 11.45980469 3.13335937 12.73210937 3.10546875 14.04296875 C3.07066406 15.01878906 3.03585938 15.99460938 3 17 C1.23186888 17.24915939 -0.53974982 17.47366632 -2.3125 17.6875 C-3.29863281 17.81511719 -4.28476563 17.94273437 -5.30078125 18.07421875 C-8 18 -8 18 -9.828125 16.67578125 C-11.50077594 14.2838904 -11.49873323 12.84990415 -11 10 C-8.62130509 7.34684029 -7.32875347 7.01896655 -3.75 6.8125 C-2.38875 6.9053125 -2.38875 6.9053125 -1 7 C-1.33 6.01 -1.66 5.02 -2 4 C-4.64 4 -7.28 4 -10 4 C-10 3.01 -10 2.02 -10 1 C-6.88450128 -0.55774936 -3.3955612 -0.56480622 0 0 Z M-6 10 C-6.33 11.32 -6.66 12.64 -7 14 C-6.01 14.33 -5.02 14.66 -4 15 C-3.01 14.34 -2.02 13.68 -1 13 C-1 12.01 -1 11.02 -1 10 C-2.65 10 -4.3 10 -6 10 Z " fill="#333333" transform="translate(202,165)"/>
<path d="M0 0 C9.9609375 -0.1953125 9.9609375 -0.1953125 13 0 C15 2 15 2 15.1953125 5.4765625 C15.18201493 6.85950968 15.15816232 8.24238654 15.125 9.625 C15.11597656 10.33140625 15.10695313 11.0378125 15.09765625 11.765625 C15.07407603 13.51056098 15.03820461 15.25532295 15 17 C13.68 17 12.36 17 11 17 C10.67 12.71 10.34 8.42 10 4 C8.02 4 6.04 4 4 4 C4 8.29 4 12.58 4 17 C2.68 17 1.36 17 0 17 C0 11.39 0 5.78 0 0 Z " fill="#333333" transform="translate(242,165)"/>
<path d="M0 0 C4.29 0 8.58 0 13 0 C13 5.34203818 12.89703018 5.73348606 9.5 9.3125 C8.8503125 10.00988281 8.200625 10.70726562 7.53125 11.42578125 C7.0259375 11.94527344 6.520625 12.46476563 6 13 C8.31 13.33 10.62 13.66 13 14 C13 14.99 13 15.98 13 17 C8.71 17 4.42 17 0 17 C1.125 11.375 1.125 11.375 4.0625 8.1875 C4.61035156 7.58292969 5.15820312 6.97835937 5.72265625 6.35546875 C6.14417969 5.90816406 6.56570312 5.46085938 7 5 C4.69 4.67 2.38 4.34 0 4 C0 2.68 0 1.36 0 0 Z " fill="#333333" transform="translate(208,165)"/>
</svg>