<?xml version="1.0" encoding="UTF-8"?>
<svg version="1.1" xmlns="http://www.w3.org/2000/svg" width="512" height="512">
<path d="M0 0 C0.95261719 0.69867187 1.90523437 1.39734375 2.88671875 2.1171875 C3.93214844 2.87773437 4.97757813 3.63828125 6.0546875 4.421875 C12.6244794 9.29560203 18.72770791 14.5531133 24.66186523 20.18261719 C26.99389429 22.3948944 29.20302437 24.32805791 31.88671875 26.1171875 C32.33660156 25.64410156 32.78648437 25.17101563 33.25 24.68359375 C52.69007301 4.69810787 82.2550627 -17.30161265 111.13378906 -18.30688477 C123.44856033 -18.38694534 132.99517453 -15.37628919 142.05078125 -6.84375 C158.05039427 10.11464132 158.64998446 33.34636571 158.07910156 55.36572266 C157.3545827 69.49384057 154.8806638 83.5583079 150.88671875 97.1171875 C151.99015625 97.20871094 153.09359375 97.30023438 154.23046875 97.39453125 C159.55588126 98.06722725 164.37499247 99.81461407 169.38671875 101.6796875 C170.352146 102.03611328 171.31757324 102.39253906 172.31225586 102.75976562 C180.82801664 105.97267429 188.93549404 109.69522131 196.88671875 114.1171875 C198.01335937 114.74238281 199.14 115.36757812 200.30078125 116.01171875 C216.68660347 125.61248093 229.76936904 137.39135321 235.46875 156.01953125 C237.82057162 167.82259863 235.02266496 178.66729613 228.6640625 188.6171875 C211.23152592 213.13767851 181.07164711 225.55014371 152.88671875 233.1171875 C152.22671875 233.1171875 151.56671875 233.1171875 150.88671875 233.1171875 C151.14066406 234.04015625 151.39460938 234.963125 151.65625 235.9140625 C156.02850481 252.24609618 158.16128905 268.06699343 158.26171875 284.9921875 C158.27557617 286.27488525 158.28943359 287.55758301 158.30371094 288.87915039 C158.2152649 306.9582189 153.96956801 323.64951709 141.19921875 336.86328125 C130.87824674 346.44362795 118.71293701 346.77924431 105.37792969 346.28759766 C78.03562827 344.41725991 51.82733616 321.05180142 32.88671875 303.1171875 C29.29708421 304.64854535 26.94015408 306.80193434 24.13671875 309.4921875 C9.09369562 323.35497345 -7.9142576 334.90020512 -27.11328125 342.1171875 C-27.97695312 342.4575 -28.840625 342.7978125 -29.73046875 343.1484375 C-40.26165434 346.69164013 -55.4694869 347.19012098 -65.953125 343.21484375 C-79.23080626 336.46795689 -86.47665585 326.22404756 -91.05078125 312.25390625 C-98.47392879 286.45133092 -94.19891194 257.54632913 -87.11328125 232.1171875 C-88.04720703 231.9315625 -88.04720703 231.9315625 -89 231.7421875 C-112.3270583 226.53670726 -136.04573735 215.87314858 -154.11328125 200.1171875 C-154.86609375 199.48683594 -155.61890625 198.85648438 -156.39453125 198.20703125 C-165.10128964 190.3207174 -171.39503148 178.86361616 -172.35546875 167.16796875 C-172.83779565 155.18072662 -169.39303911 145.55526553 -162.11328125 136.1171875 C-161.66210938 135.51390625 -161.2109375 134.910625 -160.74609375 134.2890625 C-143.85618054 113.10510356 -113.24160536 102.44272169 -88.11328125 95.1171875 C-88.25950928 94.31087891 -88.4057373 93.50457031 -88.55639648 92.67382812 C-89.10417909 89.6474433 -89.65001281 86.62071491 -90.19458008 83.59375 C-90.54425906 81.65337915 -90.8961322 79.71340412 -91.24804688 77.7734375 C-91.88585293 74.22390818 -92.50727889 70.67227588 -93.11328125 67.1171875 C-93.23687012 66.39797119 -93.36045898 65.67875488 -93.48779297 64.93774414 C-95.84683784 49.06644858 -95.88712975 29.49269956 -91.11328125 14.1171875 C-90.84644531 13.22 -90.57960938 12.3228125 -90.3046875 11.3984375 C-86.48276648 0.39130496 -79.11404242 -8.72134276 -68.78515625 -14.09375 C-45.80431979 -24.82321338 -19.2996918 -13.53348102 0 0 Z M-65.42578125 8.1171875 C-76.5768141 21.88416841 -75.98311227 41.30682207 -74.36328125 58.0546875 C-72.99694676 74.5484077 -72.99694676 74.5484077 -68.11328125 90.1171875 C-59.03233977 89.22630361 -50.04944653 87.72459822 -41.04516602 86.27392578 C-38.9549736 85.93797187 -36.86429476 85.60522626 -34.7734375 85.2734375 C-33.76828598 85.11149902 -33.76828598 85.11149902 -32.74282837 84.94628906 C-28.96735269 84.35267148 -25.23433073 83.95385003 -21.421875 83.7109375 C-17.2381021 83.33015582 -15.05455681 82.25601141 -12.11328125 79.1171875 C-10.28416527 76.87898888 -10.28416527 76.87898888 -8.61328125 74.3671875 C-0.56978748 63.00898363 8.40997819 52.30407141 17.88671875 42.1171875 C16.29826905 38.05994249 13.41715548 35.48401721 10.26171875 32.6171875 C9.40271973 31.83541138 9.40271973 31.83541138 8.52636719 31.0378418 C-7.63988669 16.57455481 -44.65756582 -13.46168318 -65.42578125 8.1171875 Z M53.88671875 33.1171875 C52.60474609 34.2309375 52.60474609 34.2309375 51.296875 35.3671875 C49.48775638 36.94420479 47.68376622 38.52644759 45.88671875 40.1171875 C49.00915275 44.50083993 52.28339201 48.61155652 55.94921875 52.5546875 C63.50749121 60.81874091 70.2557156 69.88901662 76.65234375 79.07421875 C79.3533086 82.75263067 79.82813667 82.94747418 84.25976562 83.65795898 C85.70787243 83.8548204 87.15648256 84.04800055 88.60546875 84.23828125 C89.37797974 84.34310318 90.15049072 84.44792511 90.94641113 84.55592346 C93.42607191 84.89222192 95.90631048 85.22395036 98.38671875 85.5546875 C101.62681236 85.98719013 104.86646368 86.42269717 108.10546875 86.86328125 C108.88398193 86.96893402 109.66249512 87.07458679 110.46459961 87.18344116 C115.27967438 87.85164956 120.02792737 88.65700784 124.76367188 89.76977539 C127.48786494 90.21555813 130.13176438 90.17003504 132.88671875 90.1171875 C133.70681526 85.99366093 134.51638798 81.86813306 135.32421875 77.7421875 C135.55431641 76.58589844 135.78441406 75.42960937 136.02148438 74.23828125 C140.22423486 52.676344 142.71580887 27.54753113 130.07421875 8.3671875 C124.97857083 3.12594964 120.06615738 1.40222991 112.890625 1.03125 C89.79048437 1.69211228 70.40818326 18.68565525 53.88671875 33.1171875 Z M28.85546875 58.06640625 C17.72354281 68.72623726 17.72354281 68.72623726 10.88671875 81.1171875 C24.74671875 81.1171875 38.60671875 81.1171875 52.88671875 81.1171875 C49.73597172 76.32206837 49.73597172 76.32206837 46.265625 71.8984375 C45.80478516 71.35832031 45.34394531 70.81820312 44.86914062 70.26171875 C44.40056641 69.71902344 43.93199219 69.17632812 43.44921875 68.6171875 C42.5128049 67.52362237 41.57660584 66.42987327 40.640625 65.3359375 C40.18445801 64.80742188 39.72829102 64.27890625 39.25830078 63.734375 C38.32052728 62.62867695 37.40025692 61.50795766 36.49560547 60.375 C35.33320647 58.92232095 34.11424764 57.515265 32.88671875 56.1171875 C30.65802505 55.8863917 30.65802505 55.8863917 28.85546875 58.06640625 Z M-6.1105957 103.05957031 C-6.62323975 103.88811523 -7.13588379 104.71666016 -7.6640625 105.5703125 C-8.24236816 106.47845703 -8.82067383 107.38660156 -9.41650391 108.32226562 C-10.25640869 109.70575195 -10.25640869 109.70575195 -11.11328125 111.1171875 C-12.14793996 112.71646783 -13.18308088 114.31543631 -14.21875 115.9140625 C-15.25090368 117.5621015 -16.27810557 119.21325031 -17.30078125 120.8671875 C-17.8517749 121.75752686 -18.40276855 122.64786621 -18.97045898 123.56518555 C-24.60725388 132.77187021 -29.84789042 142.19792677 -34.86376953 151.75634766 C-35.67566885 153.2903583 -36.51149782 154.81202377 -37.37451172 156.31787109 C-37.7510791 156.9980127 -38.12764648 157.6781543 -38.515625 158.37890625 C-38.84941162 158.95987061 -39.18319824 159.54083496 -39.52709961 160.1394043 C-40.92526949 164.85684461 -38.81717335 169.20537726 -36.6640625 173.36328125 C-36.15254639 174.35440918 -35.64103027 175.34553711 -35.11401367 176.36669922 C-34.27833862 177.94475342 -34.27833862 177.94475342 -33.42578125 179.5546875 C-32.84997314 180.65055176 -32.27416504 181.74641602 -31.6809082 182.87548828 C-25.63064766 194.24798666 -19.05454634 205.26852858 -12.11328125 216.1171875 C-11.68611816 216.79136719 -11.25895508 217.46554688 -10.81884766 218.16015625 C-7.83930286 222.94680598 -7.83930286 222.94680598 -4.11328125 227.1171875 C-0.06143112 228.00133232 3.82647018 228.24715851 7.96459961 228.26245117 C9.1427977 228.26883102 10.32099579 228.27521088 11.53489685 228.28178406 C12.79439651 228.28289688 14.05389618 228.2840097 15.3515625 228.28515625 C16.6582338 228.28848465 17.96490509 228.29181305 19.31117249 228.29524231 C22.0706566 228.30121137 24.8301095 228.30308444 27.58959961 228.30249023 C31.11101164 228.3023886 34.6322221 228.31605167 38.15358639 228.33326244 C41.53208123 228.34710647 44.91053969 228.34647234 48.2890625 228.34765625 C49.54653793 228.35484177 50.80401337 228.36202728 52.09959412 228.36943054 C62.06865257 228.73590526 62.06865257 228.73590526 70.63671875 224.46679688 C71.04921875 223.80486328 71.46171875 223.14292969 71.88671875 222.4609375 C72.37382324 221.69861816 72.86092773 220.93629883 73.36279297 220.15087891 C73.86568848 219.31476074 74.36858398 218.47864258 74.88671875 217.6171875 C75.43215332 216.74368652 75.97758789 215.87018555 76.53955078 214.97021484 C78.3529918 212.03687291 80.12479227 209.08174318 81.88671875 206.1171875 C82.52834961 205.03985352 83.16998047 203.96251953 83.83105469 202.85253906 C88.28535025 195.33084863 92.62864174 187.75155283 96.88671875 180.1171875 C97.3343457 179.31829102 97.78197266 178.51939453 98.24316406 177.69628906 C99.3139169 175.76433617 100.35837775 173.82196183 101.38671875 171.8671875 C101.91265625 170.87203125 102.43859375 169.876875 102.98046875 168.8515625 C104.3475847 164.72664368 103.44709522 161.46610183 101.80200195 157.50610352 C101.12657349 156.20177368 101.12657349 156.20177368 100.4375 154.87109375 C99.92598389 153.87996582 99.41446777 152.88883789 98.88745117 151.86767578 C98.33033447 150.81563965 97.77321777 149.76360352 97.19921875 148.6796875 C96.62341064 147.58382324 96.04760254 146.48795898 95.4543457 145.35888672 C89.40408516 133.98638834 82.82798384 122.96584642 75.88671875 112.1171875 C75.45955566 111.44300781 75.03239258 110.76882812 74.59228516 110.07421875 C71.61274036 105.28756902 71.61274036 105.28756902 67.88671875 101.1171875 C63.8624901 100.23945175 60.01039187 99.9910185 55.90063477 99.98779297 C54.74245743 99.98464081 53.58428009 99.98148865 52.39100647 99.97824097 C51.15338058 99.9802652 49.9157547 99.98228943 48.640625 99.984375 C47.35614975 99.98341827 46.0716745 99.98246155 44.74827576 99.98147583 C42.03586619 99.98000606 39.32348969 99.98212982 36.61108398 99.98681641 C33.15026237 99.99250754 29.68951844 99.98923401 26.22869968 99.98324394 C22.90766873 99.97874163 19.58665816 99.98190321 16.265625 99.984375 C15.03002335 99.98235077 13.79442169 99.98032654 12.52137756 99.97824097 C2.50453801 99.31219295 2.50453801 99.31219295 -6.1105957 103.05957031 Z M93.88671875 104.1171875 C94.325 104.87257813 94.76328125 105.62796875 95.21484375 106.40625 C101.62888988 117.53957398 107.76227743 128.822564 113.88671875 140.1171875 C114.54671875 140.1171875 115.20671875 140.1171875 115.88671875 140.1171875 C117.34964713 136.26474949 118.80623166 132.40994241 120.26171875 128.5546875 C120.67421875 127.46865234 121.08671875 126.38261719 121.51171875 125.26367188 C123.52415716 119.92421836 125.44462861 114.63991731 126.88671875 109.1171875 C122.70132903 108.27301491 118.51310985 107.44379534 114.32421875 106.6171875 C113.14279297 106.37871094 111.96136719 106.14023438 110.74414062 105.89453125 C105.04323903 104.77670741 99.70133312 103.77565362 93.88671875 104.1171875 Z M-40.62890625 105.2109375 C-42.50449219 105.54931641 -42.50449219 105.54931641 -44.41796875 105.89453125 C-45.73308671 106.13534134 -47.04819071 106.37622772 -48.36328125 106.6171875 C-49.69395263 106.85839192 -51.02468125 107.09928083 -52.35546875 107.33984375 C-55.6086497 107.92918813 -58.86120994 108.52175567 -62.11328125 109.1171875 C-61.55097181 116.00301188 -59.12065262 122.07200884 -56.67578125 128.4921875 C-56.26779297 129.59691406 -55.85980469 130.70164063 -55.43945312 131.83984375 C-55.04435547 132.88785156 -54.64925781 133.93585938 -54.2421875 135.015625 C-53.7018689 136.44914307 -53.7018689 136.44914307 -53.15063477 137.91162109 C-52.31800335 140.27275792 -52.31800335 140.27275792 -50.11328125 141.1171875 C-49.73743896 140.37952148 -49.73743896 140.37952148 -49.35400391 139.62695312 C-44.33925206 129.82942435 -39.17355372 120.24740045 -33.16259766 111.01953125 C-30.88081335 107.83125794 -30.88081335 107.83125794 -30.11328125 104.1171875 C-33.83013665 104.1171875 -36.98376766 104.54818503 -40.62890625 105.2109375 Z M-143.11328125 144.5546875 C-148.4898622 150.25802199 -152.28476297 156.26297063 -152.67578125 164.2421875 C-152.06872089 173.98550624 -145.91244727 180.58570518 -139.11328125 187.1171875 C-135.92613091 189.7148976 -132.59642903 191.93761299 -129.11328125 194.1171875 C-128.3140625 194.65601563 -127.51484375 195.19484375 -126.69140625 195.75 C-114.40419439 203.56583003 -95.89960453 213.1171875 -81.11328125 213.1171875 C-80.72172852 211.98627686 -80.72172852 211.98627686 -80.32226562 210.83251953 C-79.09388876 207.2995915 -77.85669357 203.76984541 -76.61328125 200.2421875 C-76.38940735 199.60625671 -76.16553345 198.97032593 -75.93487549 198.31512451 C-72.84104291 189.5615789 -69.54079779 180.97225303 -65.45117188 172.62548828 C-63.14830872 167.79833281 -62.01229356 164.25855156 -63.82519531 159.0859375 C-64.84301574 156.62963981 -65.93645833 154.21871179 -67.05078125 151.8046875 C-72.40584807 139.81059046 -76.79444255 127.51513996 -81.11328125 115.1171875 C-101.9545947 115.1171875 -128.24327385 130.68413961 -143.11328125 144.5546875 Z M144.88671875 115.1171875 C144.62568359 115.87112793 144.36464844 116.62506836 144.09570312 117.40185547 C142.86732626 120.9347835 141.63013107 124.46452959 140.38671875 127.9921875 C140.16284485 128.62811829 139.93897095 129.26404907 139.70831299 129.91925049 C136.61448041 138.6727961 133.31423529 147.26212197 129.22460938 155.60888672 C126.92174622 160.43604219 125.78573106 163.97582344 127.59863281 169.1484375 C128.61645324 171.60473519 129.70989583 174.01566321 130.82421875 176.4296875 C136.17928557 188.42378454 140.56788005 200.71923504 144.88671875 213.1171875 C150.97760482 212.57039205 156.17967799 211.21873294 161.88671875 209.0546875 C162.70906006 208.74668213 163.53140137 208.43867676 164.37866211 208.12133789 C172.51101179 205.00073958 180.22624873 201.24925013 187.88671875 197.1171875 C188.83160156 196.61445313 189.77648437 196.11171875 190.75 195.59375 C200.95430369 189.84886985 209.38853345 181.8867803 215.26171875 171.7421875 C216.81046776 165.23744166 216.71568667 159.05368441 213.3359375 153.18359375 C207.72560965 145.18396186 201.12778472 139.2740222 192.88671875 134.1171875 C192.0875 133.57835937 191.28828125 133.03953125 190.46484375 132.484375 C178.17763189 124.66854497 159.67304203 115.1171875 144.88671875 115.1171875 Z M-51.11328125 188.1171875 C-54.29810487 194.64184828 -56.99609415 201.28159985 -59.42578125 208.1171875 C-59.69213379 208.8589624 -59.95848633 209.6007373 -60.23291016 210.36499023 C-61.29436707 213.4012588 -62.11328125 215.87701438 -62.11328125 219.1171875 C-51.43837015 221.54074176 -41.08633721 223.7231819 -30.11328125 224.1171875 C-33.46416817 217.16346728 -37.27550316 210.52560618 -41.17578125 203.8671875 C-42.11260742 202.25457031 -42.11260742 202.25457031 -43.06835938 200.609375 C-43.67228516 199.57554687 -44.27621094 198.54171875 -44.8984375 197.4765625 C-45.4437915 196.54295898 -45.98914551 195.60935547 -46.55102539 194.64746094 C-47.96267582 192.36111228 -49.46155164 190.23423241 -51.11328125 188.1171875 Z M113.88671875 188.1171875 C113.36464844 189.13554687 112.84257812 190.15390625 112.3046875 191.203125 C106.63333788 202.14772029 100.4241405 212.66953218 93.88671875 223.1171875 C99.73036371 225.16107679 106.18272612 222.88464815 112.07421875 221.8046875 C113.39638731 221.57561091 114.71865213 221.34708919 116.04101562 221.11914062 C117.28302734 220.89548828 118.52503906 220.67183594 119.8046875 220.44140625 C120.94703857 220.23604248 122.08938965 220.03067871 123.26635742 219.8190918 C124.13107666 219.58746338 124.9957959 219.35583496 125.88671875 219.1171875 C127.22260431 217.02219556 127.22260431 217.02219556 125.99047852 214.22802734 C125.52440186 213.02355957 125.0583252 211.8190918 124.578125 210.578125 C124.33255356 209.93726959 124.08698212 209.29641418 123.83396912 208.63613892 C123.046208 206.58531388 122.24786551 204.53879476 121.44921875 202.4921875 C120.91401277 201.10443673 120.37949855 199.71641895 119.84570312 198.328125 C118.53406124 194.9213419 117.21289755 191.51834207 115.88671875 188.1171875 C115.22671875 188.1171875 114.56671875 188.1171875 113.88671875 188.1171875 Z M-68.11328125 238.1171875 C-71.75295233 251.51427468 -74.48092543 265.22512048 -75.11328125 279.1171875 C-75.15453125 279.99246094 -75.19578125 280.86773437 -75.23828125 281.76953125 C-75.55619887 295.30090011 -74.30927177 310.68170732 -64.86328125 321.1796875 C-59.07104031 326.34233703 -52.69253173 327.44918458 -45.11328125 327.1171875 C-29.48491219 324.41774194 -16.44914651 316.84922492 -4.11328125 307.1171875 C-3.2109375 306.40691406 -2.30859375 305.69664062 -1.37890625 304.96484375 C5.28730787 299.60739201 11.61590268 293.92709253 17.88671875 288.1171875 C16.30609001 284.32897672 13.90510622 281.86833935 11.07421875 278.9296875 C6.42771727 274.00117744 2.22591499 268.82747391 -1.86328125 263.4296875 C-2.41967285 262.70040039 -2.97606445 261.97111328 -3.54931641 261.21972656 C-5.82312314 258.22203347 -8.04085011 255.22492707 -10.140625 252.1015625 C-12.89304445 247.93329282 -12.89304445 247.93329282 -17.04418945 245.421875 C-17.78499756 245.30070312 -18.52580566 245.17953125 -19.2890625 245.0546875 C-20.61707886 244.82857788 -20.61707886 244.82857788 -21.97192383 244.59790039 C-23.00857178 244.43926514 -24.04521973 244.28062988 -25.11328125 244.1171875 C-26.34908936 243.91794678 -27.58489746 243.71870605 -28.8581543 243.51342773 C-32.37512582 242.95145651 -35.89540932 242.41399003 -39.41748047 241.88500977 C-41.60961906 241.55523842 -43.80091594 241.22024435 -45.9921875 240.88476562 C-53.35202045 239.76735805 -60.69459148 238.76705304 -68.11328125 238.1171875 Z M117.63671875 239.9296875 C108.19090636 241.84447031 98.75155496 243.05764674 89.15136719 243.90161133 C81.70958331 244.63383633 81.70958331 244.63383633 75.88671875 249.1171875 C74.05760277 251.35538612 74.05760277 251.35538612 72.38671875 253.8671875 C64.34322498 265.22539137 55.36345931 275.93030359 45.88671875 286.1171875 C47.47516845 290.17443251 50.35628202 292.75035779 53.51171875 295.6171875 C54.08438477 296.13837158 54.65705078 296.65955566 55.24707031 297.1965332 C71.64696967 311.86885325 92.66177125 328.19993564 115.88671875 327.1171875 C122.83851007 325.93222307 127.79173001 322.84608696 131.88671875 317.1171875 C144.46892955 294.92310213 138.89693899 263.69725221 132.88671875 240.1171875 C132.39171875 239.1271875 132.39171875 239.1271875 131.88671875 238.1171875 C126.96484409 237.827077 122.42271009 238.93454495 117.63671875 239.9296875 Z M10.88671875 247.1171875 C15.84045948 254.6353966 15.84045948 254.6353966 21.44921875 261.3046875 C24.7071276 264.83225434 27.85176722 268.39692434 30.88671875 272.1171875 C33.89336541 270.78694216 35.7954902 269.40024508 37.9453125 266.921875 C38.77192383 265.97054688 38.77192383 265.97054688 39.61523438 265 C40.46118164 264.00613281 40.46118164 264.00613281 41.32421875 262.9921875 C41.88431641 262.3528125 42.44441406 261.7134375 43.02148438 261.0546875 C46.89667866 256.55096112 49.64119036 252.31003292 52.88671875 247.1171875 C39.02671875 247.1171875 25.16671875 247.1171875 10.88671875 247.1171875 Z " fill="#60DAFB" transform="translate(224.11328125,25.8828125)"/>
<path d="M0 0 C5.35948133 4.45589936 8.79266702 8.95152349 11.67578125 15.27734375 C12.08828125 16.16421875 12.50078125 17.05109375 12.92578125 17.96484375 C16.08449162 27.70420071 15.21270792 37.99587895 11.05078125 47.27734375 C6.52733961 55.63986869 0.26907331 61.36078564 -8.32421875 65.27734375 C-9.21109375 65.68984375 -10.09796875 66.10234375 -11.01171875 66.52734375 C-21.59900706 69.96105888 -32.07963232 68.60484127 -41.88671875 63.71484375 C-50.7764237 58.59766065 -57.00273616 50.85551681 -60.00390625 41.05859375 C-62.55576607 30.85115446 -61.69336065 20.66134778 -56.640625 11.3203125 C-51.86513579 3.90909334 -46.32516614 -1.07607061 -38.32421875 -4.72265625 C-37.43734375 -5.13515625 -36.55046875 -5.54765625 -35.63671875 -5.97265625 C-23.32352712 -9.96612381 -10.30604518 -7.63859819 0 0 Z " fill="#60DAFB" transform="translate(279.32421875,159.72265625)"/>
<path d="M0 0 C12.808125 -0.0928125 12.808125 -0.0928125 25.875 -0.1875 C28.55093262 -0.21481201 31.22686523 -0.24212402 33.98388672 -0.27026367 C36.1324824 -0.27903506 38.28108312 -0.28667745 40.4296875 -0.29296875 C41.52289307 -0.30831665 42.61609863 -0.32366455 43.74243164 -0.33947754 C54.3194349 -0.34304523 62.34673667 1.37373719 70.08984375 8.81640625 C72.82819941 11.94675556 74.57353638 15.11233231 76 19 C76.52787109 20.36898438 76.52787109 20.36898438 77.06640625 21.765625 C79.5008478 30.19958988 79.23109698 39.51241766 75.5625 47.5 C69.73462549 57.52176552 62.6934753 61.40555452 52 65 C52.49814209 65.74459473 52.99628418 66.48918945 53.50952148 67.25634766 C79 105.37565036 79 105.37565036 79 107 C76.13942542 107.27243567 73.30485427 107.46855822 70.4375 107.625 C69.63763672 107.70878906 68.83777344 107.79257812 68.01367188 107.87890625 C65.37582653 107.98657341 63.49940142 107.87322241 61 107 C58.01528296 104.05318048 56.08150407 100.61849764 54 97 C52.82755487 95.1602633 51.64914312 93.32431569 50.46484375 91.4921875 C48.69181862 88.6765529 46.92596218 85.85654456 45.16210938 83.03515625 C39.83107413 73.28880137 39.83107413 73.28880137 32 66 C30.4804236 65.84876169 28.95527498 65.75118307 27.4296875 65.68359375 C26.62257324 65.64548584 25.81545898 65.60737793 24.98388672 65.56811523 C23.9579541 65.52501221 22.93202148 65.48190918 21.875 65.4375 C18.61625 65.293125 15.3575 65.14875 12 65 C12 77.87 12 90.74 12 104 C8.04 104 4.08 104 0 104 C0 69.68 0 35.36 0 0 Z M12 13 C12 25.87 12 38.74 12 52 C17.445 52.061875 22.89 52.12375 28.5 52.1875 C30.20220703 52.21481201 31.90441406 52.24212402 33.65820312 52.27026367 C35.03254491 52.27903909 36.40689459 52.28668052 37.78125 52.29296875 C38.82104004 52.3159906 38.82104004 52.3159906 39.88183594 52.33947754 C45.78312895 52.3425813 51.36389897 51.19335819 56.0234375 47.31640625 C56.69246094 46.44822266 56.69246094 46.44822266 57.375 45.5625 C57.83648437 44.98628906 58.29796875 44.41007812 58.7734375 43.81640625 C62.46665118 38.34715669 62.88354401 33.51839104 62 27 C59.98751659 21.98542356 56.71985125 17.66774201 52 15 C43.38192281 12.63122586 34.67758435 12.76083343 25.8125 12.875 C21.254375 12.91625 16.69625 12.9575 12 13 Z " fill="#60DAFB" transform="translate(64,396)"/>
<path d="M0 0 C8.3371354 6.20791674 12.85992456 14.77172951 15.35546875 24.75390625 C15.35546875 29.70390625 15.35546875 34.65390625 15.35546875 39.75390625 C-5.10453125 39.75390625 -25.56453125 39.75390625 -46.64453125 39.75390625 C-41.8238629 53.91370655 -41.8238629 53.91370655 -31.08203125 62.19140625 C-22.17474565 65.28551598 -13.27811265 64.77295028 -4.73046875 60.9140625 C-2.41710147 59.70434125 -2.41710147 59.70434125 0.23046875 57.44140625 C2.35546875 55.75390625 2.35546875 55.75390625 4.41796875 55.62890625 C7.36183036 57.33824525 8.64242378 59.8784379 10.35546875 62.75390625 C8.3170547 67.94259656 4.28762297 70.43459055 -0.51953125 72.87890625 C-12.20838838 77.76380177 -25.49715772 77.83729059 -37.42578125 73.81640625 C-46.68227638 69.70240841 -53.59004888 62.49162209 -57.71484375 53.2890625 C-62.13602122 41.23299452 -61.49014916 28.90660627 -57.64453125 16.75390625 C-52.63311953 5.99770548 -44.98413018 -0.39297651 -34.00390625 -4.51953125 C-22.14557182 -8.17127 -10.39984584 -6.69137368 0 0 Z M-41.16796875 15.89453125 C-44.99067251 20.70830636 -45.64453125 24.48225612 -45.64453125 30.75390625 C-29.80453125 30.75390625 -13.96453125 30.75390625 2.35546875 30.75390625 C1.38416313 20.0014256 1.38416313 20.0014256 -4.8046875 11.95703125 C-17.36034391 3.38243663 -30.86456592 4.8854159 -41.16796875 15.89453125 Z " fill="#60DAFB" transform="translate(216.64453125,429.24609375)"/>
<path d="M0 0 C5.08643372 4.1327274 7.97811093 8.53952231 9 15 C9.08419036 16.96250808 9.11780493 18.92753726 9.11352539 20.8918457 C9.11341209 22.63308464 9.11341209 22.63308464 9.11329651 24.40950012 C9.10813522 25.65237289 9.10297394 26.89524567 9.09765625 28.17578125 C9.0962413 29.45607712 9.09482635 30.73637299 9.09336853 32.0554657 C9.08956397 35.4469704 9.07975143 38.83843177 9.06866455 42.22991943 C9.05840597 45.69559137 9.05386141 49.16127036 9.04882812 52.62695312 C9.03780755 59.4179899 9.02054722 66.20898563 9 73 C5.04 73 1.08 73 -3 73 C-3.33 71.68 -3.66 70.36 -4 69 C-4.58007812 69.40992188 -5.16015625 69.81984375 -5.7578125 70.2421875 C-14.69704603 76.40819347 -23.19494402 78.9828589 -34.1640625 77.6015625 C-42.43298633 75.82217383 -48.05989157 72.6364499 -53.375 66.0625 C-57.01798629 59.19687199 -58.18312659 52.2247561 -56.46484375 44.63671875 C-54.17053086 37.17706756 -50.98961426 31.95959565 -44.125 28.03515625 C-34.86581033 23.5247054 -23.89914828 23.76419977 -14.26953125 27 C-10.75462013 28.54873881 -7.98835279 30.59632493 -5 33 C-5.1148778 21.99638501 -5.1148778 21.99638501 -9 12 C-14.95838413 8.19677608 -21.05490206 7.2494643 -28 8 C-34.62776855 9.62673141 -39.7897823 12.01729107 -44.66015625 16.828125 C-46 18 -46 18 -48 18 C-49.32421875 16.390625 -49.32421875 16.390625 -50.6875 14.25 C-51.14511719 13.55390625 -51.60273438 12.8578125 -52.07421875 12.140625 C-53 10 -53 10 -52.859375 7.921875 C-50.15034913 1.86350807 -42.28939397 -0.98592398 -36.4921875 -3.23828125 C-25.18602872 -6.69392539 -10.46639583 -5.62851143 0 0 Z M-40.5 41.6875 C-42.70613665 46.5593851 -43.81969769 50.94231191 -42.40625 56.21484375 C-40.09698116 61.56000481 -37.23159726 63.62200125 -32 66 C-24.00282082 68.66572639 -16.40536136 66.62984106 -9 63 C-6.55909842 60.98761226 -6.03103607 60.0931082 -5 57 C-4.80373257 54.69245578 -4.68815884 52.37751452 -4.625 50.0625 C-4.57601562 48.83660156 -4.52703125 47.61070312 -4.4765625 46.34765625 C-4.68718223 42.87146224 -4.68718223 42.87146224 -7.26171875 40.69921875 C-18.11300634 33.96553815 -30.82873976 31.29089524 -40.5 41.6875 Z " fill="#60DAFB" transform="translate(303,428)"/>
<path d="M0 0 C3.21702811 2.47173421 6.15715999 5.10802448 9 8 C8.44449305 11.59905908 7.25112752 12.99909799 4.4375 15.25 C3.79683594 15.77078125 3.15617187 16.2915625 2.49609375 16.828125 C2.00238281 17.21484375 1.50867188 17.6015625 1 18 C-0.32 17.34 -1.64 16.68 -3 16 C-3 15.34 -3 14.68 -3 14 C-11.13707934 9.59241536 -18.45717125 7.53229622 -27.5625 10.125 C-33.20782504 12.24686355 -37.25488028 14.99508971 -40.3203125 20.2734375 C-44.11433899 29.10847822 -44.70289359 39.27442192 -41.96484375 48.48046875 C-38.15158594 57.03108864 -32.97830487 60.95533907 -24.5 64.4375 C-17.75049565 65.52224177 -11.83859684 64.71547072 -6 61 C-5.13375 60.113125 -4.2675 59.22625 -3.375 58.3125 C-1 56 -1 56 3 56 C4.921875 57.53125 4.921875 57.53125 6.75 59.5 C7.36359375 60.1496875 7.9771875 60.799375 8.609375 61.46875 C9.29773438 62.22671875 9.29773438 62.22671875 10 63 C6.35769372 69.9534938 0.3536695 73.16785663 -6.73828125 76.15234375 C-10.98557335 77.25613104 -14.94256391 77.32977247 -19.3125 77.3125 C-20.5180957 77.33666992 -20.5180957 77.33666992 -21.74804688 77.36132812 C-32.02225454 77.36959378 -39.55083693 74.0134573 -47 67 C-57.14797094 55.92743615 -58.77495306 43.6566361 -58.17919922 29.21923828 C-57.31122989 18.47013577 -51.83368131 10.52508949 -44.3125 3.25 C-32.74972368 -6.23017496 -12.99030585 -7.65124811 0 0 Z " fill="#60DAFB" transform="translate(389,427)"/>
<path d="M0 0 C4.29 0 8.58 0 13 0 C13 6.6 13 13.2 13 20 C18.28 20 23.56 20 29 20 C29 23.96 29 27.92 29 32 C24.05 32 19.1 32 14 32 C13.95053875 39.02920507 13.91425109 46.05830867 13.89013672 53.08764648 C13.88008314 55.47861496 13.86643836 57.86957115 13.84912109 60.26049805 C13.8248449 63.6984358 13.81351035 67.13621088 13.8046875 70.57421875 C13.79436493 71.64210129 13.78404236 72.70998383 13.77340698 73.81022644 C13.77325592 74.81088638 13.77310486 75.81154633 13.77294922 76.8425293 C13.76628738 78.15824165 13.76628738 78.15824165 13.75949097 79.50053406 C14.02872199 82.29849037 14.84559802 84.44991984 16 87 C21.03511899 88.0070238 24.23947038 87.97387813 29 86 C31.15305957 89.85756507 32.39253254 92.55129785 32 97 C25.30838581 101.11791642 19.80785263 101.89201137 12 101 C6.70977294 99.26865296 4.11801555 96.45430794 1 92 C0.04087537 88.4288803 -0.12199929 85.06969148 -0.11352539 81.38354492 C-0.11344986 80.28278122 -0.11337433 79.18201752 -0.11329651 78.04789734 C-0.10813522 76.8706459 -0.10297394 75.69339447 -0.09765625 74.48046875 C-0.0962413 73.26676102 -0.09482635 72.05305328 -0.09336853 70.80256653 C-0.08777665 66.93085248 -0.07522558 63.05919653 -0.0625 59.1875 C-0.05748395 56.56054771 -0.05292123 53.93359451 -0.04882812 51.30664062 C-0.03780987 44.87107141 -0.02055075 38.43554555 0 32 C-4.29 32 -8.58 32 -13 32 C-13.125 23.25 -13.125 23.25 -12 21 C-8.04 21 -4.08 21 0 21 C0 14.07 0 7.14 0 0 Z " fill="#60DAFA" transform="translate(416,404)"/>
</svg>
