<?xml version="1.0" encoding="UTF-8"?>
<svg version="1.1" xmlns="http://www.w3.org/2000/svg" width="304" height="166">
<path d="M0 0 C100.32 0 200.64 0 304 0 C304 54.78 304 109.56 304 166 C203.68 166 103.36 166 0 166 C0 111.22 0 56.44 0 0 Z " fill="#FEFEFE" transform="translate(0,0)"/>
<path d="M0 0 C24.75 0 49.5 0 75 0 C75 24.75 75 49.5 75 75 C50.25 75 25.5 75 0 75 C0 50.25 0 25.5 0 0 Z " fill="#057DD0" transform="translate(20,48)"/>
<path d="M0 0 C2.30859375 1.34375 2.30859375 1.34375 4 3 C4 3.99 4 4.98 4 6 C0.49128216 7.91384609 -0.81367786 8.04276246 -4.8125 7.125 C-5.864375 6.75375 -6.91625 6.3825 -8 6 C-8 7.65 -8 9.3 -8 11 C-7.13375 11.2475 -6.2675 11.495 -5.375 11.75 C-0.37357272 13.60238048 4.48627099 16.1121936 7 21 C7.5 24.4375 7.5 24.4375 7 28 C4.45862841 31.15954305 2.85377341 32.71540886 -1 34 C-6.55308495 34.36413672 -10.25936703 34.27329419 -15 31 C-16.375 28.3125 -16.375 28.3125 -17 26 C-15.02 25.34 -13.04 24.68 -11 24 C-10.4740625 24.7734375 -10.4740625 24.7734375 -9.9375 25.5625 C-7.90531273 27.40146383 -7.90531273 27.40146383 -4.3125 26.6875 C-3.219375 26.460625 -2.12625 26.23375 -1 26 C-1.17314719 24.06652491 -1.17314719 24.06652491 -2 22 C-3.93895285 20.61001124 -3.93895285 20.61001124 -6.3125 19.5625 C-10.18073947 17.53598601 -12.84189773 15.94088241 -15 12 C-15.69498979 7.67561906 -15.49022795 5.76802378 -13.125 2.0625 C-8.8576223 -0.75396928 -4.99466035 -0.97456787 0 0 Z " fill="#F4F9FC" transform="translate(82,83)"/>
<path d="M0 0 C8.58 0 17.16 0 26 0 C26 1.98 26 3.96 26 6 C22.7 6 19.4 6 16 6 C16 15.24 16 24.48 16 34 C13.69 34 11.38 34 9 34 C9 24.76 9 15.52 9 6 C6.03 6 3.06 6 0 6 C0 4.02 0 2.04 0 0 Z " fill="#F4F9FD" transform="translate(37,83)"/>
<path d="M0 0 C2.44239066 3.75752409 2.37632763 7.14694714 1.625 11.5 C0.0625 14.5625 0.0625 14.5625 -2.375 16.5 C-6.79059065 17.04226552 -8.64244552 16.98836965 -12.375 14.5 C-12.375 17.47 -12.375 20.44 -12.375 23.5 C-13.365 23.5 -14.355 23.5 -15.375 23.5 C-15.375 15.25 -15.375 7 -15.375 -1.5 C-4.77305825 -3.01456311 -4.77305825 -3.01456311 0 0 Z " fill="#178AD3" transform="translate(157.375,80.5)"/>
<path d="M0 0 C3.17030133 2.76385245 3.91484046 4.31872368 4.4375 8.5 C3.97918775 12.16649798 3.22769177 14.08686461 1 17 C-1.98594424 18.49297212 -4.70853624 18.11755228 -8 18 C-8.66 17.67 -9.32 17.34 -10 17 C-10 19.64 -10 22.28 -10 25 C-10.99 25 -11.98 25 -13 25 C-13 16.75 -13 8.5 -13 0 C-7.82562755 -0.86239541 -4.941668 -1.28117319 0 0 Z " fill="#218ED4" transform="translate(255,79)"/>
<path d="M0 0 C3.375 1.75 3.375 1.75 6 4 C6 5.32 6 6.64 6 8 C3.53229066 7.57453287 2.28800359 7.31304738 0.5625 5.4375 C-0.97743496 3.72062597 -0.97743496 3.72062597 -3.6875 3.8125 C-4.450625 3.874375 -5.21375 3.93625 -6 4 C-6.33 5.65 -6.66 7.3 -7 9 C-6.40832031 9.18175781 -5.81664062 9.36351563 -5.20703125 9.55078125 C4.32350031 12.58251641 4.32350031 12.58251641 7 15 C7.51237291 18.58661035 7.82277483 20.87803432 5.625 23.875 C1.40481671 26.79666536 -3.016208 26.57876294 -8 26 C-10.625 24.3125 -10.625 24.3125 -12 22 C-12.25 19.25 -12.25 19.25 -12 17 C-11.01 17.33 -10.02 17.66 -9 18 C-8.67 19.32 -8.34 20.64 -8 22 C-4.7 22 -1.4 22 2 22 C2.33 20.68 2.66 19.36 3 18 C0.19966403 15.19966403 -2.81768874 14.85111115 -6.58984375 13.87890625 C-9.1644867 12.94001701 -10.38994691 12.20518822 -12 10 C-12 6.5 -12 6.5 -11 3 C-7.53321007 -0.07058537 -4.53767163 -0.6482388 0 0 Z " fill="#1689D2" transform="translate(193,71)"/>
<path d="M0 0 C3.71317907 1.14770989 5.2692056 1.85342428 7.4375 5.0625 C7.4375 7.0425 7.4375 9.0225 7.4375 11.0625 C3.1475 11.0625 -1.1425 11.0625 -5.5625 11.0625 C-4.9025 12.3825 -4.2425 13.7025 -3.5625 15.0625 C-0.64597826 15.22931109 -0.64597826 15.22931109 2.4375 15.0625 C3.0975 14.4025 3.7575 13.7425 4.4375 13.0625 C5.4275 13.0625 6.4175 13.0625 7.4375 13.0625 C5.6875 17.9375 5.6875 17.9375 3.4375 19.0625 C-3.6744334 19.75075162 -3.6744334 19.75075162 -7.0625 17.125 C-9.08991822 12.98568779 -9.49322016 9.58547341 -8.5625 5.0625 C-5.94061147 1.08994162 -4.79463931 0.08411648 0 0 Z " fill="#1589D2" transform="translate(170.5625,77.9375)"/>
<path d="M0 0 C6.6 0 13.2 0 20 0 C20 0.99 20 1.98 20 3 C17.36 3 14.72 3 12 3 C12 9.93 12 16.86 12 24 C10.68 24 9.36 24 8 24 C8 17.07 8 10.14 8 3 C5.36 3 2.72 3 0 3 C0 2.01 0 1.02 0 0 Z " fill="#1589D2" transform="translate(103,72)"/>
<path d="M0 0 C1.32 0 2.64 0 4 0 C5.32 3.63 6.64 7.26 8 11 C10.13900345 8.01782689 10.13900345 8.01782689 11.4375 4.375 C11.953125 3.26125 12.46875 2.1475 13 1 C13.99 0.67 14.98 0.34 16 0 C15.37919728 5.34060421 13.62952367 9.84134502 11.5625 14.75 C11.09360352 15.90048828 11.09360352 15.90048828 10.61523438 17.07421875 C8.26051457 22.73948543 8.26051457 22.73948543 6 25 C4.68 25 3.36 25 2 25 C2 24.01 2 23.02 2 22 C2.99 21.67 3.98 21.34 5 21 C6.7471529 15.93824846 4.98275485 12.38939317 3.0625 7.6875 C2.77181641 6.94693359 2.48113281 6.20636719 2.18164062 5.44335938 C1.46578953 3.62439349 0.73441265 1.8115512 0 0 Z " fill="#1589D2" transform="translate(123,79)"/>
<path d="M0 0 C2.875 1.8125 2.875 1.8125 5 4 C5 4.99 5 5.98 5 7 C3.68 6.67 2.36 6.34 1 6 C1 5.34 1 4.68 1 4 C-1.91634129 3.7497843 -1.91634129 3.7497843 -5 4 C-7.30441554 7.45662331 -7.25860135 8.94857881 -7 13 C-6.67 13.66 -6.34 14.32 -6 15 C-3.08365871 15.2502157 -3.08365871 15.2502157 0 15 C0.66 14.01 1.32 13.02 2 12 C2.99 12 3.98 12 5 12 C4.39816251 14.02045442 3.72693904 16.02111039 3 18 C-0.22309078 19.61154539 -3.51435871 19.58553263 -7 19 C-9.7716107 16.85200171 -10.75580223 15.28610825 -11.41015625 11.83984375 C-11.68900472 7.55701723 -11.36967356 5.53276484 -8.875 1.9375 C-5.46618264 -0.35974648 -4.02516948 -0.75471928 0 0 Z " fill="#1187D2" transform="translate(214,78)"/>
<path d="M0 0 C2.375 0.875 2.375 0.875 4.375 2.875 C4.69037716 7.21143601 4.82397847 9.20153229 2.375 12.875 C-0.7555429 13.27464378 -2.75583761 13.39649743 -5.5 11.75 C-7.17968045 8.95053259 -7.08242277 7.07695936 -6.625 3.875 C-4.55425273 0.88392061 -3.70318945 -0.17634235 0 0 Z " fill="#F0F7FC" transform="translate(151.625,81.125)"/>
<path d="M0 0 C2.4375 0.8125 2.4375 0.8125 4.4375 2.8125 C4.703125 4.6875 4.703125 4.6875 4.6875 6.8125 C4.69265625 7.51375 4.6978125 8.215 4.703125 8.9375 C4.4375 10.8125 4.4375 10.8125 2.4375 12.8125 C-0.5625 13.0625 -0.5625 13.0625 -3.5625 12.8125 C-5.5625 10.8125 -5.5625 10.8125 -5.875 6.875 C-5.79910758 4.26619811 -5.69350187 3.04002957 -4.375 0.75 C-2.5625 -0.1875 -2.5625 -0.1875 0 0 Z " fill="#F7FBFD" transform="translate(250.5625,81.1875)"/>
<path d="M0 0 C0.66 0 1.32 0 2 0 C2.33 1.65 2.66 3.3 3 5 C3.99 5.33 4.98 5.66 6 6 C5.67 6.99 5.34 7.98 5 9 C4.01 9 3.02 9 2 9 C2.33 12.63 2.66 16.26 3 20 C3.99 20.33 4.98 20.66 6 21 C6 21.99 6 22.98 6 24 C3.625 24.125 3.625 24.125 1 24 C-1 22 -1 22 -1.1953125 18.7421875 C-1.17210937 17.46601562 -1.14890625 16.18984375 -1.125 14.875 C-1.10695313 13.59367187 -1.08890625 12.31234375 -1.0703125 10.9921875 C-1.04710937 10.00476563 -1.02390625 9.01734375 -1 8 C-1.99 8 -2.98 8 -4 8 C-4 7.34 -4 6.68 -4 6 C-3.01 6 -2.02 6 -1 6 C-1.020625 5.195625 -1.04125 4.39125 -1.0625 3.5625 C-1 1 -1 1 0 0 Z " fill="#1589D2" transform="translate(264,73)"/>
<path d="M0 0 C1.98 0 3.96 0 6 0 C5.67 0.66 5.34 1.32 5 2 C3.67730899 5.96807303 3.65739367 8.82020274 4 13 C4.99 13.66 5.98 14.32 7 15 C7 15.66 7 16.32 7 17 C5.68 17 4.36 17 3 17 C3 19.64 3 22.28 3 25 C2.01 25 1.02 25 0 25 C0 16.75 0 8.5 0 0 Z " fill="#1589D2" transform="translate(242,79)"/>
<path d="M0 0 C-0.1875 1.8125 -0.1875 1.8125 -1 4 C-1.825 4.4125 -2.65 4.825 -3.5 5.25 C-6.29017343 6.79265798 -6.29017343 6.79265798 -6.70703125 9.91796875 C-6.74183594 10.99691406 -6.77664062 12.07585937 -6.8125 13.1875 C-6.88404297 14.81751953 -6.88404297 14.81751953 -6.95703125 16.48046875 C-6.97121094 17.31191406 -6.98539063 18.14335938 -7 19 C-7.99 19 -8.98 19 -10 19 C-10 13.06 -10 7.12 -10 1 C-8.68 1.33 -7.36 1.66 -6 2 C-3 0 -3 0 0 0 Z " fill="#198BD3" transform="translate(232,78)"/>
<path d="M0 0 C0.33 0.99 0.66 1.98 1 3 C1.66 3 2.32 3 3 3 C3 4.32 3 5.64 3 7 C2.01 7.33 1.02 7.66 0 8 C0 7.34 0 6.68 0 6 C-0.70125 6.495 -1.4025 6.99 -2.125 7.5 C-5.37119719 9.1936681 -7.39340156 9.25162315 -11 9 C-11.66 7.35 -12.32 5.7 -13 4 C-8.71 4 -4.42 4 0 4 C0 2.68 0 1.36 0 0 Z " fill="#F7FBFD" transform="translate(178,85)"/>
<path d="M0 0 C0.99 0 1.98 0 3 0 C3 5.94 3 11.88 3 18 C2.01 18 1.02 18 0 18 C0 12.06 0 6.12 0 0 Z " fill="#0B85D1" transform="translate(234,79)"/>
<path d="M0 0 C3.81365679 -0.35475877 5.58442458 -0.2619932 8.875 1.8125 C11 4 11 4 11 7 C9.68 6.67 8.36 6.34 7 6 C7 5.34 7 4.68 7 4 C2.85906302 3.79029441 2.85906302 3.79029441 -1 5 C-0.67 3.35 -0.34 1.7 0 0 Z " fill="#228FD4" transform="translate(208,78)"/>
<path d="M0 0 C2.4375 0.1875 2.4375 0.1875 5 1 C5.66 2.32 6.32 3.64 7 5 C3.7 5 0.4 5 -3 5 C-1 1 -1 1 0 0 Z " fill="#ECF5FB" transform="translate(168,81)"/>
<path d="M0 0 C0.33 0.99 0.66 1.98 1 3 C1.66 3 2.32 3 3 3 C3 4.32 3 5.64 3 7 C2.01 7.33 1.02 7.66 0 8 C0 7.34 0 6.68 0 6 C-0.66 5.67 -1.32 5.34 -2 5 C-1.34 5 -0.68 5 0 5 C0 3.35 0 1.7 0 0 Z " fill="#D9EBF7" transform="translate(178,85)"/>
</svg>
