<?xml version="1.0" encoding="UTF-8"?>
<svg version="1.1" xmlns="http://www.w3.org/2000/svg" width="2000" height="680">
<path d="M0 0 C0.86625 0.804375 1.7325 1.60875 2.625 2.4375 C2.625 2.7675 2.625 3.0975 2.625 3.4375 C1.44744141 3.67533203 1.44744141 3.67533203 0.24609375 3.91796875 C-7.31546764 5.59728484 -13.36408939 7.0194014 -17.87109375 13.6328125 C-22.3597051 21.74537352 -23.36790422 28.73623445 -20.9375 37.6875 C-18.61962567 44.48978413 -15.14001505 50.49080904 -11.45703125 56.61962891 C-4.42150085 68.43970096 1.73673046 80.44725467 2.625 94.4375 C2.68816406 95.23414063 2.75132812 96.03078125 2.81640625 96.8515625 C3.60408441 114.89193318 -2.74187507 132.99393923 -8.1875 149.9375 C-8.78555698 151.8316995 -9.38256382 153.72623087 -9.97851562 155.62109375 C-13.97244591 168.27241568 -18.14403758 180.86371047 -22.375 193.4375 C-25.37079276 191.93960362 -25.54828981 189.50746282 -26.56254578 186.4858551 C-26.84193497 185.62814011 -27.12132416 184.77042511 -27.40917969 183.88671875 C-27.70885147 182.98682724 -28.00852325 182.08693573 -28.317276 181.15977478 C-29.3174976 178.15046249 -30.30706986 175.1377529 -31.296875 172.125 C-31.99964078 170.00481173 -32.70312419 167.88486121 -33.4072876 165.76513672 C-35.27596447 160.13423399 -37.13594266 154.50049656 -38.99383545 148.86602783 C-41.9127575 140.01885748 -44.84490476 131.17605365 -47.77574158 122.33282471 C-48.49845142 120.15174041 -49.22083276 117.97054724 -49.94288635 115.78924561 C-55.80645369 98.07741912 -61.77714659 80.40435693 -67.83598709 62.75842285 C-68.58924212 60.56404577 -69.34119558 58.36922659 -70.09289551 56.17431641 C-70.86289255 53.93008625 -71.63664837 51.68713303 -72.41784668 49.44677734 C-74.375 43.76639113 -74.375 43.76639113 -74.375 40.4375 C-73.09882813 40.31632812 -71.82265625 40.19515625 -70.5078125 40.0703125 C-68.83849474 39.90150509 -67.16922635 39.7322089 -65.5 39.5625 C-64.65824219 39.48386719 -63.81648437 39.40523438 -62.94921875 39.32421875 C-62.14355469 39.24042969 -61.33789062 39.15664063 -60.5078125 39.0703125 C-59.39237061 38.96033936 -59.39237061 38.96033936 -58.25439453 38.84814453 C-56.14117496 38.56358718 -56.14117496 38.56358718 -54.375 36.4375 C-53.95833333 33.9375 -53.95833333 33.9375 -54.375 31.4375 C-58.20524786 28.88400143 -60.86875643 29.45402237 -65.25 29.8125 C-75.43970501 30.47841766 -85.60570267 30.56543872 -95.8125 30.5625 C-97.01948547 30.5634819 -97.01948547 30.5634819 -98.25085449 30.56448364 C-108.69663614 30.56540275 -119.1105774 30.43802661 -129.52514648 29.52978516 C-133.68301063 29.1632753 -133.68301063 29.1632753 -137.4140625 30.75390625 C-138.62348387 32.49755158 -138.62348387 32.49755158 -138.125 35.0625 C-137.59754355 37.3687407 -137.59754355 37.3687407 -136.375 38.4375 C-133.51971393 38.837883 -130.67763513 39.1893227 -127.8125 39.5 C-127.00619141 39.59087891 -126.19988281 39.68175781 -125.36914062 39.77539062 C-123.37152623 39.99997449 -121.3733144 40.21923236 -119.375 40.4375 C-114.71065682 51.118001 -110.68983173 62.04514179 -106.6796875 72.98388672 C-105.88961988 75.12943044 -105.09234571 77.27233344 -104.28808594 79.41259766 C-103.11542118 82.53478186 -101.96559275 85.66455819 -100.8203125 88.796875 C-100.45898224 89.74600769 -100.09765198 90.69514038 -99.72537231 91.67303467 C-99.40108246 92.57467346 -99.0767926 93.47631226 -98.74267578 94.40527344 C-98.30896164 95.57675934 -98.30896164 95.57675934 -97.8664856 96.77191162 C-96.62004369 103.53203049 -98.99119972 109.99880192 -101.15063477 116.33203125 C-101.57513412 117.60662453 -101.57513412 117.60662453 -102.00820923 118.90696716 C-102.93717681 121.69041107 -103.87669173 124.47016794 -104.81640625 127.25 C-105.46582024 129.18890799 -106.1145684 131.12803911 -106.76268005 133.06738281 C-108.46413924 138.15273758 -110.17458873 143.23502337 -111.88696289 148.31671143 C-113.63518672 153.51009004 -115.37484307 158.70633624 -117.11523438 163.90234375 C-120.52680308 174.08354515 -123.94788158 184.26152321 -127.375 194.4375 C-128.035 194.4375 -128.695 194.4375 -129.375 194.4375 C-138.15010822 168.95840275 -146.73811489 143.41925328 -155.234375 117.84609985 C-159.69678945 104.41525024 -164.1621882 90.98627358 -168.76171875 77.6015625 C-169.09233307 76.63897522 -169.42294739 75.67638794 -169.76358032 74.68463135 C-171.26405974 70.32143441 -172.77143818 65.96077784 -174.2890625 61.60351562 C-176.71166724 54.61210598 -179.02094201 47.73113754 -180.375 40.4375 C-179.09882813 40.31632812 -177.82265625 40.19515625 -176.5078125 40.0703125 C-174.83849474 39.90150509 -173.16922635 39.7322089 -171.5 39.5625 C-170.65824219 39.48386719 -169.81648438 39.40523438 -168.94921875 39.32421875 C-168.14355469 39.24042969 -167.33789062 39.15664063 -166.5078125 39.0703125 C-165.39237061 38.96033936 -165.39237061 38.96033936 -164.25439453 38.84814453 C-162.14117496 38.56358718 -162.14117496 38.56358718 -160.375 36.4375 C-159.95833333 33.9375 -159.95833333 33.9375 -160.375 31.4375 C-164.29764846 28.82240102 -167.25376593 29.4573704 -171.75 29.8125 C-185.28307853 30.70283411 -198.81952304 30.52924365 -212.375 30.4375 C-209.75905405 25.6061938 -206.91573278 21.34979939 -203.3125 17.1875 C-202.82918213 16.62740234 -202.34586426 16.06730469 -201.84790039 15.49023438 C-200.36912161 13.79471525 -198.87590599 12.11344463 -197.375 10.4375 C-196.5396875 9.50421875 -195.704375 8.5709375 -194.84375 7.609375 C-143.10893248 -46.99959905 -56.0953743 -46.89573292 0 0 Z " fill="#32373C" transform="translate(432.375,231.5625)"/>
<path d="M0 0 C9.89352365 -0.09332315 19.7869399 -0.16407742 29.68081665 -0.20724869 C34.27662884 -0.2279851 38.87213646 -0.25604238 43.46777344 -0.30175781 C47.91580124 -0.34572009 52.36353902 -0.36924147 56.81176758 -0.37950897 C58.49557043 -0.38681116 60.17936025 -0.40106576 61.86303711 -0.42292023 C78.21878145 -0.62647421 95.72960085 1.08508649 108.3125 12.6875 C115.19355011 20.04214465 118.37665484 28.55021287 118.2109375 38.54296875 C117.413989 47.82594291 113.48554847 55.85834358 106.65625 62.1640625 C99.64999094 67.66603653 92.43300824 70.43932013 84 73 C90.2105084 80.30785387 96.77466416 87.29345619 103.36083984 94.26123047 C104.75541402 95.74055089 106.13869878 97.23050086 107.51953125 98.72265625 C115.93456157 107.56222864 128.14274557 116.40216934 140.76953125 117.16796875 C150.65296581 117.38833812 150.65296581 117.38833812 159.3125 113.1875 C163.97127876 107.14834235 164.12320097 100.04338529 164.14526367 92.66870117 C164.14862228 91.96051743 164.1519809 91.25233368 164.15544128 90.52268982 C164.16489104 88.19609797 164.16689143 85.86957856 164.16796875 83.54296875 C164.17118569 81.91400626 164.17455009 80.28504405 164.17805481 78.65608215 C164.18403129 75.24589366 164.18589625 71.83573046 164.18530273 68.42553711 C164.18520125 64.07479565 164.19884644 59.72421786 164.21607494 55.37351513 C164.22724247 52.00958016 164.22922048 48.64568416 164.22869301 45.28173256 C164.22986623 43.67870839 164.23425074 42.07568298 164.24202538 40.47267723 C164.91700666 25.26910097 164.91700666 25.26910097 159 12 C153.29872949 9.17899713 147.26707207 8.49738667 141 8 C141 5.36 141 2.72 141 0 C151.26744184 -0.07000853 161.5348254 -0.12306635 171.80245876 -0.15543652 C176.5719245 -0.17098519 181.34122501 -0.1920219 186.1105957 -0.22631836 C190.72719471 -0.25930236 195.34363642 -0.2769338 199.96034431 -0.28463173 C201.70749444 -0.29010614 203.45463754 -0.30079229 205.20171928 -0.31719017 C229.31452631 -0.53417464 252.43837922 3.4520589 270.67578125 20.515625 C282.9085695 33.59134487 286.74121814 49.93231285 286.3125 67.32421875 C285.50860914 83.51927007 279.05393729 98.02896429 267 109 C250.28697851 122.19112041 230.2533932 126.18042994 209.31591797 126.43334961 C208.12224609 126.45452347 206.92857422 126.47569733 205.69873047 126.49751282 C201.79664716 126.56180443 197.89456286 126.61076421 193.9921875 126.65234375 C192.98949569 126.66320853 192.98949569 126.66320853 191.96654749 126.6742928 C185.64427408 126.74135592 179.32196458 126.79936856 172.99944878 126.83782101 C164.96803843 126.88737035 156.93970025 126.98045547 148.90954483 127.13173288 C143.22850482 127.23507627 137.54829345 127.28802783 131.86634552 127.3044911 C128.48601866 127.31564227 125.10926408 127.34821826 121.72997665 127.43562126 C99.60472178 127.9364195 99.60472178 127.9364195 93.94815063 123.14744568 C91.03495168 120.05757979 89.02738959 116.71696454 87 113 C86.02225487 111.71995355 85.02026228 110.45733274 83.9765625 109.23046875 C83.20054687 108.22628906 82.42453125 107.22210938 81.625 106.1875 C77.0338891 100.27945407 72.33925649 94.46231894 67.59033203 88.68041992 C67.07970215 88.05627197 66.56907227 87.43212402 66.04296875 86.7890625 C65.53813965 86.17579102 65.03331055 85.56251953 64.51318359 84.93066406 C63.45744934 83.58365754 62.45301872 82.1955429 61.49072266 80.78027344 C58.48422983 76.21761576 58.48422983 76.21761576 53.625 74 C52.75875 74 51.8925 74 51 74 C51.11129997 77.95884039 51.24157915 81.91684826 51.375 85.875 C51.4059375 86.98359375 51.436875 88.0921875 51.46875 89.234375 C51.7085465 96.02860921 52.47298308 102.38051815 54 109 C54.2475 110.4540625 54.2475 110.4540625 54.5 111.9375 C57.2060755 115.65835382 61.65790836 116.14000124 66 117 C69.32927549 117.46465498 72.6452221 117.79300307 76 118 C76 120.64 76 123.28 76 126 C50.92 126 25.84 126 0 126 C0 123.36 0 120.72 0 118 C1.42892578 117.83564453 1.42892578 117.83564453 2.88671875 117.66796875 C4.14097656 117.50941406 5.39523437 117.35085938 6.6875 117.1875 C7.92886719 117.03667969 9.17023437 116.88585937 10.44921875 116.73046875 C13.99331578 116.00137508 16.13618341 115.177748 19 113 C22.38058869 106.48029323 23.12416217 100.86100454 23.14526367 93.59863281 C23.14862228 92.87108795 23.1519809 92.14354309 23.15544128 91.39395142 C23.16491256 88.99699173 23.16689265 86.60010222 23.16796875 84.203125 C23.17118464 82.52789278 23.17454896 80.85266084 23.17805481 79.1774292 C23.18403699 75.66710764 23.18589571 72.15681067 23.18530273 68.64648438 C23.18520132 64.16680068 23.19883667 59.6872762 23.21607494 55.20763016 C23.22724134 51.7467579 23.2292205 48.28592352 23.22869301 44.8250351 C23.22986678 43.17456261 23.23425444 41.52408895 23.24202538 39.87363434 C23.87651455 25.71191266 23.87651455 25.71191266 18.75 13.0625 C13.03878835 8.77909126 6.90727449 8.51872812 0 8 C0 5.36 0 2.72 0 0 Z M51 12 C51 28.17 51 44.34 51 61 C67.76140535 62.34055101 67.76140535 62.34055101 82.20703125 56.23828125 C88.13346589 49.12944359 90.65529969 43.16806568 90.34375 33.80859375 C89.45192508 26.5219788 86.83535917 20.95011218 81.171875 16.25390625 C70.42600495 10.04990573 64.72101479 12 51 12 Z M192 12 C191.93042881 23.87437746 191.87715246 35.74870627 191.84456348 47.62324619 C191.82892085 53.13733187 191.80770799 58.65127789 191.77368164 64.1652832 C191.74103848 69.48857429 191.72313643 74.8117312 191.71536827 80.13511467 C191.70983369 82.16405282 191.69902598 84.1929838 191.68280983 86.2218647 C191.66096986 89.06807333 191.65803584 91.91373055 191.65942383 94.76000977 C191.648638 95.59511078 191.63785217 96.43021179 191.6267395 97.2906189 C191.65466616 102.59780929 192.50149274 106.29068978 195 111 C201.04433426 115.45503726 210.58454726 114.11058569 217.5625 113.3125 C229.02194683 111.54772197 238.40816309 107.70799407 245.9765625 98.62890625 C253.82644086 87.38854851 255.33584272 75.65822596 255.4375 62.3125 C255.4528479 60.76344971 255.4528479 60.76344971 255.46850586 59.18310547 C255.31742367 45.89843767 251.91836175 33.24548283 242.875 23.1875 C231.80298487 13.01982165 218.19920492 11.65847132 203.875 11.875 C202.72773437 11.88402344 201.58046875 11.89304687 200.3984375 11.90234375 C197.59873252 11.92567462 194.79948305 11.95840768 192 12 Z " fill="#32373C" transform="translate(906,295)"/>
<path d="M0 0 C9.89352365 -0.09332315 19.7869399 -0.16407742 29.68081665 -0.20724869 C34.27662884 -0.2279851 38.87213646 -0.25604238 43.46777344 -0.30175781 C47.91580124 -0.34572009 52.36353902 -0.36924147 56.81176758 -0.37950897 C58.49557043 -0.38681116 60.17936025 -0.40106576 61.86303711 -0.42292023 C78.6748678 -0.63215039 96.03898014 1.28774486 108.875 13.25 C115.93871846 20.7255607 118.35475865 28.96331793 118.20703125 39.0625 C117.57898284 47.97367742 114.25588442 54.66164629 108 61 C101.65079768 66.4730773 94.95460628 69.5381751 87 72 C85.515 72.495 85.515 72.495 84 73 C84.66644531 73.72703125 85.33289062 74.4540625 86.01953125 75.203125 C86.67937012 75.92302612 86.67937012 75.92302612 87.35253906 76.6574707 C88.33735937 77.73171533 89.3223902 78.805767 90.30761719 79.87963867 C92.8544856 82.65624204 95.39822327 85.43554686 97.93359375 88.22265625 C100.60859073 91.16137885 103.30019567 94.08404179 106 97 C106.62519531 97.680625 107.25039062 98.36125 107.89453125 99.0625 C116.96603378 108.580142 129.00707032 116.49649403 142.421875 117.12890625 C146.39613889 116.93019306 149.64767466 116.19008047 153 114 C157.98508572 108.12015531 158.14970857 102.55216281 158.16113281 95.1237793 C158.16609772 94.34586029 158.17106262 93.56794128 158.17617798 92.76644897 C158.19073848 90.20236311 158.19759129 87.6383391 158.203125 85.07421875 C158.20888137 83.28448995 158.21463904 81.49476115 158.22039795 79.70503235 C158.23089048 75.95512608 158.23674461 72.20524114 158.24023438 68.45532227 C158.24571615 63.66384224 158.26974481 58.87264678 158.29820633 54.08125591 C158.31688229 50.38451833 158.32204094 46.68784865 158.32357025 42.99106789 C158.32658599 41.22532406 158.33457787 39.45958112 158.34775543 37.6938839 C158.36492051 35.21717382 158.36291052 32.74115065 158.35644531 30.2644043 C158.37026749 29.18321571 158.37026749 29.18321571 158.3843689 28.08018494 C158.33836238 22.41880462 157.35421635 16.76493103 153.58732986 12.34087658 C148.75948355 8.26261522 141.00674421 8.45926817 135 8 C135 5.36 135 2.72 135 0 C171.96 0 208.92 0 247 0 C249 24 249 24 249 36 C246.69 36 244.38 36 242 36 C241.70867187 34.97519531 241.41734375 33.95039063 241.1171875 32.89453125 C240.70419383 31.53352937 240.29007097 30.17286979 239.875 28.8125 C239.68679688 28.13896484 239.49859375 27.46542969 239.3046875 26.77148438 C237.65826311 21.49778126 235.53821465 19.15727547 231 16 C224.40181319 13.19226093 217.4102831 12.88302001 210.31640625 12.68359375 C208.39356812 12.62643188 208.39356812 12.62643188 206.43188477 12.56811523 C204.82498779 12.52501221 203.21809082 12.48190918 201.5625 12.4375 C196.426875 12.293125 191.29125 12.14875 186 12 C186 25.53 186 39.06 186 53 C200.19570535 52.92713888 200.19570535 52.92713888 214 49 C215.56961869 46.10224243 215.82121364 45.12317417 216 42 C216.1546875 40.56333984 216.1546875 40.56333984 216.3125 39.09765625 C216.59028983 36.39962254 216.81407575 33.70568711 217 31 C219.64 31 222.28 31 225 31 C225 49.81 225 68.62 225 88 C222.36 88 219.72 88 217 88 C216.94392578 86.91332031 216.94392578 86.91332031 216.88671875 85.8046875 C216.41658235 77.9513884 216.41658235 77.9513884 213 71 C207.65596803 67.52595032 202.31067302 67.26930106 196.125 66.8125 C195.15046875 66.73064453 194.1759375 66.64878906 193.171875 66.56445312 C190.78192129 66.36529032 188.39164528 66.17747754 186 66 C186.21330727 70.69658951 186.44382815 75.39191635 186.68969727 80.08691406 C186.77082521 81.6810862 186.84740854 83.27549685 186.91918945 84.87011719 C187.02374293 87.17462011 187.14512155 89.47774355 187.26953125 91.78125 C187.29779495 92.48366821 187.32605865 93.18608643 187.35517883 93.90979004 C187.69096808 99.64559861 188.7350775 105.67373585 192.875 109.92578125 C200.44398608 113.75201502 209.73896012 113.3221286 218 113 C219.61455078 112.95552734 219.61455078 112.95552734 221.26171875 112.91015625 C228.4642966 112.56068206 235.80466705 111.98719908 242 108 C244.37838613 104.88937926 245.70057149 101.67348989 247 98 C247.47373047 96.79730469 247.47373047 96.79730469 247.95703125 95.5703125 C248.67511125 93.72756839 249.3435851 91.86560023 250 90 C252.31 90 254.62 90 257 90 C256.73829872 94.48434851 256.47164368 98.96836697 256.20043945 103.45214844 C256.10891457 104.97680725 256.01873228 106.50154728 255.92993164 108.02636719 C255.80189152 110.22093187 255.66899019 112.41515696 255.53515625 114.609375 C255.49656998 115.2886908 255.4579837 115.96800659 255.41822815 116.66790771 C255.21658672 119.89874346 254.84038155 122.87883396 254 126 C233.90269154 126.39810844 213.80618886 126.69737401 193.7057476 126.88080692 C184.37133426 126.9682655 175.03937818 127.08736218 165.70654297 127.2824707 C157.56647127 127.45256185 149.42817938 127.56173583 141.28637993 127.59950441 C136.97893816 127.6215685 132.67658489 127.67292506 128.37078476 127.79741096 C100.11618975 128.58295904 100.11618975 128.58295904 92.89093018 122.35055542 C89.73511509 118.91883671 87.36073406 115.24949888 85.18935013 111.13662529 C83.31449485 107.76851433 80.88666954 104.89846664 78.4375 101.9375 C77.55797425 100.81632348 76.68127653 99.69291729 75.80859375 98.56640625 C72.04837122 93.7659777 68.18599471 89.04811735 64.32592773 84.32788086 C63.80587158 83.69116455 63.28581543 83.05444824 62.75 82.3984375 C62.01523438 81.50850098 62.01523438 81.50850098 61.265625 80.60058594 C60 79 60 79 58.5 76.6015625 C56.29982057 74.25241259 54.11242815 74.27666028 51 74 C50.43966218 94.4581546 50.43966218 94.4581546 57 113 C60.88191793 116.02531258 64.48553819 116.6010467 69.3125 117.1875 C70.56675781 117.34605469 71.82101562 117.50460937 73.11328125 117.66796875 C74.54220703 117.83232422 74.54220703 117.83232422 76 118 C76 120.64 76 123.28 76 126 C50.92 126 25.84 126 0 126 C0 123.36 0 120.72 0 118 C1.42892578 117.83564453 1.42892578 117.83564453 2.88671875 117.66796875 C4.14097656 117.50941406 5.39523437 117.35085938 6.6875 117.1875 C7.92886719 117.03667969 9.17023438 116.88585937 10.44921875 116.73046875 C13.9845292 116.00318266 16.12549304 115.14414221 19 113 C22.70157439 106.91884208 23.15009522 101.30004307 23.16113281 94.32324219 C23.16609772 93.56643661 23.17106262 92.80963104 23.17617798 92.02989197 C23.19073702 89.53554359 23.19759155 87.04125883 23.203125 84.546875 C23.20888213 82.80438232 23.21463979 81.06188965 23.22039795 79.31939697 C23.23089052 75.66784369 23.23674441 72.01631232 23.24023438 68.36474609 C23.24571175 63.70339724 23.26973094 59.04234154 23.29820633 54.38108444 C23.31690242 50.78124161 23.32204203 47.18146838 23.32357025 43.58158112 C23.3265822 41.86411183 23.33456103 40.14664335 23.34775543 38.42922211 C23.96481645 23.96935555 23.96481645 23.96935555 17.6875 11.5625 C12.496136 8.65480507 5.80271236 8.604118 0 8 C0 5.36 0 2.72 0 0 Z M51 12 C51 28.17 51 44.34 51 61 C68.45203673 62.04094548 68.45203673 62.04094548 82.75 56.3125 C88.77529015 50.11984068 90.374961 42.6030247 90.2734375 34.20703125 C89.71302794 27.63422773 87.62847357 22.10606692 82.75 17.5625 C73.39767479 9.80747786 62.71852792 12 51 12 Z " fill="#32373C" transform="translate(1345,295)"/>
<path d="M0 0 C27.72 0 55.44 0 84 0 C84 2.97 84 5.94 84 9 C82.35451172 9.14695312 82.35451172 9.14695312 80.67578125 9.296875 C79.22126122 9.447019 77.76683882 9.59811083 76.3125 9.75 C75.2306543 9.8428125 75.2306543 9.8428125 74.12695312 9.9375 C69.31320485 10.46503406 66.54132032 11.45190852 63 15 C59.55355974 21.89288052 62.75554142 30.81120208 65 37.625 C65.33668701 38.68388428 65.67337402 39.74276855 66.02026367 40.83374023 C67.32415699 44.89686154 68.65917061 48.94895098 70 53 C70.30214417 53.91465027 70.60428833 54.82930054 70.91558838 55.77166748 C75.34870725 69.18746109 79.82060574 82.59012178 84.31762695 95.98461914 C85.88523099 100.65414879 87.4445427 105.32641144 89 110 C89.20694489 109.37694473 89.41388977 108.75388947 89.62710571 108.11195374 C92.29048615 100.09460913 94.95663753 92.07818772 97.625 84.0625 C97.83927265 83.41882603 98.0535453 82.77515205 98.27431107 82.11197281 C105.40271446 60.7016442 112.62503366 39.32527894 119.95452881 17.98286438 C122.0062598 12.00070948 124.0159168 6.00494379 126 0 C128.97 0 131.94 0 135 0 C142.51155122 22.4225152 149.96026212 44.86352578 157.26135254 67.35552979 C161.77482397 81.25964977 166.33816085 95.14478239 171 109 C174.92798002 100.00313948 178.19001833 90.84516306 181.265625 81.53125 C181.74897609 80.07812976 182.23268667 78.62512906 182.71673584 77.17224121 C183.72113876 74.154471 184.72261977 71.13575413 185.72167969 68.11621094 C187.00080717 64.25033511 188.28525296 60.38625322 189.57159805 56.52277374 C190.80483997 52.81789633 192.03526877 49.11208649 193.265625 45.40625 C193.49898811 44.70427994 193.73235123 44.00230988 193.97278595 43.27906799 C194.63218732 41.29398224 195.28955734 39.30823593 195.94628906 37.32226562 C196.50657806 35.63115662 196.50657806 35.63115662 197.07818604 33.90588379 C198.9940252 27.86648086 199.68637553 22.35139048 199 16 C196.50843881 12.07099966 193.44442933 11.03174252 189 10 C185.00568906 9.55562014 181.01103579 9.24663327 177 9 C177 6.03 177 3.06 177 0 C200.76 0 224.52 0 249 0 C249 2.97 249 5.94 249 9 C248.16597656 9.03738281 247.33195313 9.07476562 246.47265625 9.11328125 C236.87449706 9.67399845 229.39159232 10.55815756 222 17 C215.16014711 26.04117413 211.98475407 36.81456558 208.5 47.4375 C207.8539796 49.3723888 207.20670376 51.30685876 206.55834961 53.2409668 C205.0045507 57.8861537 203.4602138 62.53440659 201.92138672 67.18457031 C198.33079356 78.03245673 194.71278048 88.87120738 191.09765625 99.7109375 C189.68219557 103.95512747 188.26681039 108.19934259 186.8515625 112.44360352 C186.49815859 113.5034184 186.14475468 114.56323328 185.78064156 115.65516376 C183.63375682 122.09486549 181.49013359 128.53564226 179.34937382 134.97738266 C177.99461173 139.05382387 176.63881467 143.12992052 175.28295708 147.20599747 C174.64128056 149.1360933 174.00013853 151.0663669 173.35954475 152.99682236 C172.47613661 155.65888991 171.59093005 158.32035301 170.70532227 160.98168945 C170.31356182 162.16471224 170.31356182 162.16471224 169.91388702 163.37163448 C168.11386665 168.77226671 168.11386665 168.77226671 167 171 C165.02 171 163.04 171 161 171 C152.7798952 146.50603269 144.7077235 121.96418028 136.67254448 97.40906811 C136.03578203 95.46325732 135.39884567 93.51750352 134.76187134 91.57176208 C133.98159723 89.18793308 133.20174777 86.803965 132.42245483 84.41981506 C129.31792742 74.93439312 126.16244203 65.46623143 123 56 C122.70761995 56.87990553 122.70761995 56.87990553 122.40933323 57.77758694 C117.67233932 72.03268425 112.93204838 86.28668046 108.1880579 100.53945065 C105.89400682 107.43192861 103.60108463 114.32477832 101.31079102 121.21850586 C99.31521365 127.22513527 97.31754753 133.23106513 95.31734079 139.23615462 C94.25774009 142.41757031 93.19920849 145.59933295 92.14317513 148.78193474 C90.96548324 152.32942734 89.78410372 155.87567089 88.60180664 159.42163086 C88.25007385 160.48401978 87.89834106 161.54640869 87.53594971 162.64099121 C87.21483719 163.60157944 86.89372467 164.56216766 86.56288147 165.55186462 C86.2835782 166.39161803 86.00427492 167.23137144 85.71650791 168.09657192 C85 170 85 170 84 171 C82.33382885 171.04063832 80.66611905 171.042721 79 171 C76.10171877 164.00620229 73.57157585 156.94907524 71.234375 149.75 C70.88384567 148.67876389 70.53331635 147.60752777 70.17216492 146.50382996 C69.02805802 143.00364823 67.88893412 139.50186798 66.75 136 C65.9494484 133.5472335 65.14874639 131.09451609 64.34790039 128.6418457 C59.32358159 113.23505127 54.36922179 97.80646197 49.45022583 82.36572266 C42.77930597 61.3843379 42.77930597 61.3843379 35.8125 40.5 C35.48628662 39.53473389 35.16007324 38.56946777 34.82397461 37.57495117 C31.61392109 28.35795748 28.08225528 18.35620631 19.6875 12.8125 C13.60330342 9.95003037 6.61722669 9.65482972 0 9 C0 6.03 0 3.06 0 0 Z " fill="#32373C" transform="translate(525,257)"/>
<path d="M0 0 C32.9396717 28.84357276 52.37145768 68.27267715 57.43212891 111.6003418 C60.56296031 159.70823901 46.84624916 204.70497491 15.06860352 241.25952148 C6.72712233 250.69867154 -2.20705893 258.68379482 -12.31787109 266.1628418 C-12.88715332 266.58710449 -13.45643555 267.01136719 -14.04296875 267.44848633 C-49.77498724 293.70120965 -95.40629862 302.60401137 -138.86523438 296.64575195 C-181.72329158 290.00514842 -223.13144155 265.78343383 -248.88037109 230.63549805 C-275.92713847 192.6064344 -288.06917916 147.05861677 -280.72387695 100.59130859 C-276.88241605 78.59485263 -269.59859923 56.9445215 -257.31787109 38.1628418 C-256.88104004 37.49446289 -256.44420898 36.82608398 -255.99414062 36.13745117 C-249.25204711 25.96297706 -241.85028104 16.87400335 -233.31787109 8.1628418 C-232.55990234 7.35459961 -231.80193359 6.54635742 -231.02099609 5.71362305 C-170.10043847 -57.9861571 -64.61720116 -55.4732576 0 0 Z M-231.31787109 22.1628418 C-259.79581172 54.90591177 -273.3403453 95.97323132 -271.31787109 139.1628418 C-268.00711036 180.92138551 -248.5996213 220.82560815 -216.85595703 248.43432617 C-202.30777451 260.77550887 -186.03465332 270.1669842 -168.31787109 277.1628418 C-167.68848633 277.41259766 -167.05910156 277.66235352 -166.41064453 277.91967773 C-152.35091038 283.36093824 -136.39924793 286.68505713 -121.31787109 287.1628418 C-120.68913086 287.18330566 -120.06039062 287.20376953 -119.41259766 287.22485352 C-74.14974399 288.48737203 -34.68709168 272.15189235 -1.31787109 242.1628418 C-0.64240234 241.56084961 0.03306641 240.95885742 0.72900391 240.33862305 C30.32643811 212.36200071 45.73021848 170.02527738 46.96777344 130.02539062 C47.54238176 86.1618809 29.28187503 45.70910681 -0.90234375 14.6027832 C-29.35497423 -14.34057909 -69.5486967 -30.10412583 -109.86816406 -31.19287109 C-155.90645866 -31.55534122 -200.43201159 -12.0707857 -231.31787109 22.1628418 Z " fill="#33383D" transform="translate(451.31787109375,210.837158203125)"/>
<path d="M0 0 C11.0497479 -0.06996021 22.09944184 -0.12304249 33.14936733 -0.15543652 C38.28203168 -0.17099543 43.41454289 -0.19205179 48.54711914 -0.22631836 C53.51384518 -0.25926463 58.48042527 -0.27692619 63.44725227 -0.28463173 C65.32837275 -0.2901127 67.20948658 -0.30081249 69.09054375 -0.31719017 C90.39748898 -0.49507676 111.39088291 1.4183373 127.77734375 16.65234375 C136.90573265 26.52401113 139.46614074 38.25597026 139.24609375 51.31640625 C138.4935236 62.5810674 133.48608346 71.97742082 125.375 79.75 C105.65318965 96.34089981 81.15446708 94.55883266 57 94 C57.21363052 99.63838822 57.44419023 105.27575141 57.68969727 110.9128418 C57.7707238 112.82606681 57.84731673 114.73948542 57.91918945 116.65307617 C58.1841044 133.43602594 58.1841044 133.43602594 63.75 149 C70.30469751 154.82639778 78.6088339 155.01075018 87 156 C87 158.64 87 161.28 87 164 C58.29 164 29.58 164 0 164 C0 161.36 0 158.72 0 156 C1.15757813 155.82984375 2.31515625 155.6596875 3.5078125 155.484375 C5.04699798 155.24035779 6.58605394 154.99552264 8.125 154.75 C8.88554688 154.64042969 9.64609375 154.53085937 10.4296875 154.41796875 C16.09719244 153.48967053 20.63870163 151.93172439 24.390625 147.2734375 C26.65641334 142.26810507 27.51070246 137.25618124 28.09277344 131.828125 C28.17812222 131.03943024 28.26347099 130.25073547 28.3514061 129.43814087 C29.22199861 120.75009069 29.29036352 112.09878237 29.265625 103.375 C29.26697875 101.65022731 29.26892511 99.925455 29.27142334 98.20068359 C29.27434131 94.61747541 29.27018593 91.03436815 29.26074219 87.45117188 C29.24934975 82.91331948 29.25592734 78.37570387 29.26788712 73.83786011 C29.27519675 70.28570854 29.27277661 66.73361092 29.26763153 63.18145752 C29.26632003 61.51051809 29.26785228 59.83957336 29.27259064 58.16864014 C29.29190852 49.4477431 29.03077169 40.84720549 28.08886719 32.171875 C27.96877478 31.05928818 27.96877478 31.05928818 27.84625626 29.92422485 C27.22133757 24.70231728 26.53249161 19.09806114 23 15 C17.88137349 11.47212459 13.69382498 10.28852443 7.5625 9.75 C6.46518555 9.63398438 6.46518555 9.63398438 5.34570312 9.515625 C3.56524115 9.3294329 1.78276645 9.16265336 0 9 C0 6.03 0 3.06 0 0 Z M57 15 C57 36.12 57 57.24 57 79 C80.37064128 80.576557 80.37064128 80.576557 98.75 73.375 C105.7062699 66.03227067 109.01671262 57.85217564 108.9921875 47.796875 C108.39350599 36.6041337 106.19921854 29.77228066 98.83984375 21.26171875 C86.16378379 11.1662047 73.2513079 15 57 15 Z " fill="#32373C" transform="translate(1198,257)"/>
<path d="M0 0 C12.40191551 10.42519525 21.85629061 25.31191172 23.89453125 41.59765625 C25.3532047 61.69664089 20.62488406 78.45185671 7.359375 93.96875 C-6.66072152 108.92203837 -25.84408493 118.074724 -46.41796875 118.80078125 C-70.53205899 119.20328095 -90.9181886 112.75760639 -108.79296875 96 C-120.91641867 83.40553767 -127.53609254 68.19997832 -127.41796875 50.78515625 C-127.4123291 49.90859375 -127.40668945 49.03203125 -127.40087891 48.12890625 C-127.07610538 30.7133278 -119.92355034 16.53009154 -107.7578125 4.22265625 C-77.98285936 -23.7120066 -32.08140456 -24.81769032 0 0 Z M-84.79296875 9.22265625 C-92.90342771 19.10198561 -97.33670805 31.90145681 -98.10546875 44.59765625 C-98.15832031 45.45488281 -98.21117187 46.31210937 -98.265625 47.1953125 C-98.77742357 63.7286316 -94.45776285 79.42228487 -84.29296875 92.66015625 C-75.33789977 101.88145701 -64.29583325 105.62233113 -51.73046875 106.03515625 C-39.2354705 105.71834595 -29.41997054 101.97610432 -20.10546875 93.59765625 C-8.11294912 80.91766734 -4.62272972 63.68776881 -4.890625 46.796875 C-5.48937438 30.56370069 -11.50790823 15.51497406 -23.35546875 4.34765625 C-41.42656614 -10.36328244 -69.15048811 -7.27553996 -84.79296875 9.22265625 Z " fill="#32373C" transform="translate(876.10546875,307.40234375)"/>
<path d="M0 0 C1.86158271 1.14047228 1.86158271 1.14047228 3.92578125 0.98828125 C5.24578125 -1.65171875 6.56578125 -4.29171875 7.92578125 -7.01171875 C10.56578125 -7.01171875 13.20578125 -7.01171875 15.92578125 -7.01171875 C15.92578125 7.83828125 15.92578125 22.68828125 15.92578125 37.98828125 C12.95578125 37.98828125 9.98578125 37.98828125 6.92578125 37.98828125 C6.69503906 37.22644531 6.46429687 36.46460938 6.2265625 35.6796875 C2.90033743 25.14883264 -0.59458355 16.31375212 -10.07421875 9.98828125 C-17.01540978 6.40942862 -25.11020203 5.57865207 -32.6328125 7.71484375 C-37.24733943 9.57883985 -40.58317424 11.52515983 -43.07421875 15.98828125 C-44.31851411 20.11000965 -44.37117662 23.04472809 -42.76171875 26.98828125 C-36.37765956 37.76368751 -21.18366503 42.46014874 -10.30834961 47.50610352 C4.40754526 54.36027335 18.1016557 61.27004093 25.36328125 76.67578125 C28.64758467 85.8320211 27.91010617 95.64104491 24.18359375 104.52734375 C18.03042068 116.56616062 8.32813745 123.3436601 -4.21484375 127.73828125 C-18.67794989 131.7128753 -33.22868992 128.7990293 -46.19921875 121.86328125 C-48.89840812 120.3174547 -51.48482538 118.7145435 -54.07421875 116.98828125 C-54.34234375 117.66890625 -54.61046875 118.34953125 -54.88671875 119.05078125 C-56.23475181 122.38538934 -57.64958173 125.68571362 -59.07421875 128.98828125 C-61.71421875 128.98828125 -64.35421875 128.98828125 -67.07421875 128.98828125 C-67.07421875 111.49828125 -67.07421875 94.00828125 -67.07421875 75.98828125 C-64.10421875 75.98828125 -61.13421875 75.98828125 -58.07421875 75.98828125 C-57.74550781 77.43847656 -57.74550781 77.43847656 -57.41015625 78.91796875 C-54.39496911 91.57002629 -49.97505202 101.16575637 -39.07421875 108.98828125 C-29.6489645 114.5442206 -18.76976715 116.28333703 -8.07421875 113.98828125 C-3.50476655 112.02261 0.42961498 109.39328055 2.92578125 104.98828125 C4.42972654 100.47644539 4.86821521 96.34436615 3.08984375 91.8984375 C-3.6235306 80.16129644 -18.10635832 74.75492133 -29.84375 69.27734375 C-30.85171631 68.80514404 -31.85968262 68.33294434 -32.89819336 67.84643555 C-34.88212013 66.92265625 -36.87101563 66.00944855 -38.86547852 65.10864258 C-52.07248147 58.97808302 -60.98645265 50.75987848 -66.07421875 36.98828125 C-68.46196613 29.02912332 -67.39539461 20.50524867 -64.07421875 12.98828125 C-57.79981148 2.44591673 -48.55599974 -2.57438306 -37.07421875 -6.01171875 C-24.38127384 -9.12019505 -11.25766929 -6.24607183 0 0 Z " fill="#32373C" transform="translate(1805.07421875,297.01171875)"/>
<path d="M0 0 C1.80066242 -2.9465385 3.50163895 -5.88801935 5 -9 C7.64 -9 10.28 -9 13 -9 C13 5.85 13 20.7 13 36 C10.03 36 7.06 36 4 36 C3.70867187 35.01 3.41734375 34.02 3.1171875 33 C-0.07397042 22.56365828 -3.6589938 14.41049445 -13 8 C-20.07372797 4.5602264 -27.94357777 3.56413048 -35.55859375 5.7265625 C-40.18238377 7.59430034 -43.46028183 9.5554932 -46 14 C-47.48821139 18.46463416 -46.998166 21.83319452 -45.171875 26.0625 C-40.18230137 34.3119284 -28.35532979 37.96456374 -20 42 C-15.84722632 44.00690894 -11.7032212 46.03085553 -7.5625 48.0625 C-6.05333008 48.78590576 -6.05333008 48.78590576 -4.51367188 49.52392578 C7.59896028 55.47789854 17.84692846 63.18338616 23 76 C26.05390539 85.5281848 24.47295605 96.24856424 20 105 C13.33172785 116.16639656 3.20236692 122.93558694 -9.25 126.3125 C-27.14524251 129.64184744 -42.22927756 124.84714829 -57 115 C-57.268125 115.680625 -57.53625 116.36125 -57.8125 117.0625 C-59.16053306 120.39710809 -60.57536298 123.69743237 -62 127 C-64.64 127 -67.28 127 -70 127 C-70 109.51 -70 92.02 -70 74 C-67.03 74 -64.06 74 -61 74 C-60.84144531 74.75023437 -60.68289063 75.50046875 -60.51953125 76.2734375 C-57.59362598 89.10862415 -52.64956019 99.87531037 -41.375 107.3125 C-32.07899526 112.46755718 -21.41959594 114.45604761 -11 112 C-6.43116582 110.01771549 -2.50060901 107.41283943 0 103 C1.80067542 97.59797374 1.65458967 93.51864804 -0.5625 88.375 C-4.9086935 81.66512041 -11.65516029 77.78221651 -18.625 74.25 C-19.4404126 73.82517334 -20.2558252 73.40034668 -21.09594727 72.96264648 C-25.5077045 70.68829873 -29.95632651 68.54383118 -34.48828125 66.51953125 C-48.77896425 60.11147327 -61.41886688 53.1267836 -68 38 C-71.38992611 28.02962908 -70.5231358 19.4220811 -66 10 C-60.09868509 0.01315938 -51.02597509 -5.13110551 -40 -8 C-26.58373131 -11.13997778 -11.0354092 -8.2765569 0 0 Z " fill="#32373C" transform="translate(1694,299)"/>
<path d="M0 0 C2.1287193 2.65092833 3.55809861 5.01764671 4.69140625 8.21875 C4.99092697 9.05355392 5.29044769 9.88835785 5.5990448 10.74845886 C5.91698502 11.65646744 6.23492523 12.56447601 6.5625 13.5 C6.90642288 14.46363968 7.25034576 15.42727936 7.60469055 16.42012024 C8.35107202 18.51352428 9.09434184 20.60803975 9.83486938 22.70352173 C11.41633751 27.1779345 13.0130093 31.64686795 14.60920715 36.11604309 C15.44747118 38.46311051 16.28501374 40.81043572 17.12187195 43.15800476 C21.38188244 55.09945109 25.71751393 67.01290122 30.07202148 78.92016602 C31.28833054 82.24640382 32.50263696 85.57336784 33.71679688 88.90039062 C34.47368241 90.97145502 35.23083452 93.04242203 35.98828125 95.11328125 C36.34366974 96.08540558 36.69905823 97.05752991 37.06521606 98.05911255 C39.3577626 104.3087669 41.72553656 110.52044188 44.21166992 116.69604492 C45 119 45 119 45 122 C16.01535429 130.90266961 -12.69865699 133.02253611 -42 124 C-41.38704547 117.79036479 -39.55660281 112.29655843 -37.484375 106.4296875 C-37.12066803 105.38315002 -36.75696106 104.33661255 -36.38223267 103.25836182 C-35.1773233 99.79517692 -33.96366291 96.33512592 -32.75 92.875 C-31.24993875 88.57339349 -29.75271088 84.27080237 -28.25512314 79.9683342 C-27.57911791 78.02729364 -26.90221925 76.08656657 -26.22512817 74.14590454 C-22.82046873 64.38358517 -19.45360101 54.60862468 -16.1015625 44.828125 C-15.61599807 43.41223089 -15.13040256 41.99634744 -14.64477539 40.58047485 C-12.75074419 35.05761382 -10.85681164 29.53472233 -8.96765137 24.01019287 C-8.07234849 21.39229145 -7.17555588 18.77491056 -6.27694702 16.15814209 C-5.45887543 13.7758459 -4.64303696 11.39278136 -3.82974243 9.0088501 C-3.47004364 7.96323914 -3.11034485 6.91762817 -2.73974609 5.84033203 C-2.42621185 4.92478546 -2.11267761 4.00923889 -1.78964233 3.06594849 C-1 1 -1 1 0 0 Z " fill="#32373C" transform="translate(341,351)"/>
<path d="M0 0 C0.66 0 1.32 0 2 0 C2.47119263 1.32439087 2.47119263 1.32439087 2.9519043 2.67553711 C10.5830712 24.1047542 18.36505515 45.47537225 26.25 66.8125 C33.81549169 87.2861209 41.28361093 107.7917074 48.64086914 128.34106445 C52.12944789 138.0770773 55.64958974 147.79878816 59.265625 157.48828125 C59.6014711 158.39007614 59.9373172 159.29187103 60.28334045 160.22099304 C61.85462415 164.43787864 63.43368926 168.65153288 65.02709961 172.86010742 C65.57433357 174.32330116 66.12130683 175.78659244 66.66796875 177.25 C67.04921906 178.24287773 67.04921906 178.24287773 67.43817139 179.2558136 C68.01709728 180.8168039 68.51688621 182.40674956 69 184 C68.67 184.66 68.34 185.32 68 186 C53.28155722 178.61632937 40.79961545 169.47230296 29 158 C28.44530029 157.47229004 27.89060059 156.94458008 27.3190918 156.40087891 C5.83177697 135.579585 -6.81545641 106.29180514 -11 77 C-11.13019531 76.15050781 -11.26039063 75.30101562 -11.39453125 74.42578125 C-14.58497557 49.37015849 -10.28135143 22.98004442 0 0 Z " fill="#32373C" transform="translate(209,281)"/>
<path d="M0 0 C0.66 0 1.32 0 2 0 C20.2092206 36.99567874 23.96589562 76.6147672 11 116 C5.31051731 131.69993784 -3.04617367 146.39036271 -14 159 C-14.68578125 159.80695313 -15.3715625 160.61390625 -16.078125 161.4453125 C-26.02469219 172.85881945 -36.95173551 182.30786454 -50 190 C-50.66 190 -51.32 190 -52 190 C-50.75470594 183.83494912 -49.1094351 177.94753005 -47.05078125 172.0078125 C-46.76172913 171.16158325 -46.472677 170.315354 -46.17486572 169.44348145 C-45.22558994 166.66896576 -44.26921534 163.89695829 -43.3125 161.125 C-42.63700023 159.15683716 -41.96179388 157.1885736 -41.28686523 155.22021484 C-37.05173931 142.88524914 -32.77432279 130.56489675 -28.47851562 118.25094604 C-27.86683149 116.49742843 -27.25550451 114.74378618 -26.64453125 112.99002075 C-23.37615888 103.60892214 -20.0899789 94.23489612 -16.74757385 84.87988281 C-15.28162984 80.7711577 -13.82627097 76.65872056 -12.37203979 72.5458374 C-11.68007173 70.59746867 -10.9832794 68.65080471 -10.28103638 66.70611572 C-3.85378887 48.90075774 0.79699242 31.81058214 0.25 12.75 C0.23195313 11.50476563 0.21390625 10.25953125 0.1953125 8.9765625 C0.14926479 5.98346104 0.08430625 2.9922234 0 0 Z " fill="#32373C" transform="translate(462,271)"/>
</svg>
